<svg xmlns="http://www.w3.org/2000/svg" fill="none" viewBox="0 0 16 16">
  <path d="M13.725 15.523H.75a.653.653 0 01-.653-.653V1.895c0-.36.293-.653.653-.653h12.975c.36 0 .652.293.652.653V14.87c0 .36-.292.653-.652.653z" fill="#EFF3F5"/>
  <path d="M14.378 14.873v.477c0 .36-.29.65-.65.65H.75c-.36 0-.65-.29-.65-.65v-.477c0 .36.29.65.65.65h12.975c.36 0 .653-.293.653-.65z" fill="#C6C1C1"/>
  <path d="M3.97 11.932h4.86l5.547-1.9V3.83L3.97 11.932z" fill="#D3D3D3"/>
  <path d="M12.35 4.385H2.123v.635H12.35v-.635zm0 2.453H2.123v.635H12.35v-.635zm0 2.452H2.123v.635H12.35V9.29zm0 2.455H2.123v.635H12.35v-.635z" fill="#BDBDBE"/>
  <path d="M8.013 10.438a.36.36 0 01-.093.047.247.247 0 01-.067.025l-2.655.998-.803-.803.995-2.655c.008-.022.015-.047.025-.07a.475.475 0 01.05-.092l2.548 2.55z" fill="#FCD66F"/>
  <path d="M4.668 10.98l-.275-.275.995-2.655a.74.74 0 01.025-.07.475.475 0 01.05-.092l.977.715-1.772 2.377z" fill="#FBD984"/>
  <path d="M8.013 10.438a.36.36 0 01-.093.047.247.247 0 01-.067.025l-2.655.998-.275-.275L7.3 9.457l.713.98z" fill="#E6AC43"/>
  <path d="M7.297 9.46l-2.375 1.775-.952.697.697-.952 1.775-2.375.855.855z" fill="#FCD66F"/>
  <path d="M3.97 11.932l1.225-.422-.803-.803-.422 1.225z" fill="#2E435A"/>
  <path d="M14.008 4.465l-5.893 5.893a.484.484 0 01-.1.08.36.36 0 01-.092.047.605.605 0 01-.8-.775.4.4 0 01.057-.113.502.502 0 01.08-.1l5.893-5.892.855.86z" fill="#324A5E"/>
  <path d="M6.4 8.645l5.895-5.895.857.857-5.895 5.895a.605.605 0 01-.857 0 .61.61 0 010-.857z" fill="#445B69"/>
  <path d="M12.295 2.75L6.4 8.645a.603.603 0 01-1.01-.592c.008-.023.015-.048.025-.07a.475.475 0 01.05-.093.381.381 0 01.08-.1l5.893-5.895.857.855z" fill="#445B69"/>
  <path d="M12.332 2.79l-6.07 6.07a.619.619 0 01.138-.215l5.895-5.895.037.04zM7.123 9.712l6.067-6.067-.037-.038-5.895 5.895-.135.21z" fill="#687D87"/>
  <path d="M13.931 2.903l-.742.743.818.818.743-.742-.819-.819z" fill="#DEDEDF"/>
  <path d="M13.075 2.049l-.742.742.818.819.743-.743-.819-.818z" fill="#E5E5E5"/>
  <path d="M12.18 1.15l-.743.743.858.858.742-.743-.857-.857z" fill="#EFF3F5"/>
  <path d="M13.037 2.009l-.742.742.038.04.743-.743-.039-.04zm.858.856l-.742.743.037.037.742-.743-.037-.037z" fill="#DEDEDF"/>
  <path d="M15.792 2.68L14.75 3.722l-.82-.82 1.305-1.305.557.558a.371.371 0 010 .525z" fill="#A72A45"/>
  <path d="M14.38.745L13.075 2.05l.818.818 1.305-1.304-.819-.819z" fill="#D1395D"/>
  <path d="M14.38.742l-1.305 1.305-.895-.895L13.222.11a.371.371 0 01.525 0l.633.632zm.817.818l-1.304 1.305.037.037 1.305-1.305-.038-.037z" fill="#DF4666"/>
  <path d="M14.34.704l-1.305 1.305.039.038L14.378.743 14.34.704z" fill="#A72A45"/>
  <path d="M15.197 1.56l-1.304 1.305.037.037 1.305-1.305-.038-.037z" fill="#621A21"/>
  <path d="M13.673 3.161l-.228.228.819.819.228-.228-.819-.819z" fill="#C6C1C1"/>
  <path d="M12.82 2.305l-.229.228.819.819.228-.228-.819-.819z" fill="#D3D3D3"/>
  <path d="M11.921 1.408l-.228.228.857.858.228-.228-.857-.858z" fill="#DEDEDF"/>
  <path d="M12.779 2.267l-.228.228.039.039.228-.228-.04-.039zm.858.856l-.228.229.037.037.228-.228-.037-.038z" fill="#BDBDBE"/>
  <path d="M13.037 2.009l-.742.742.038.04.743-.743-.039-.04z" fill="#C6C1C1"/>
  <path d="M13.895 2.865l-.742.743.037.037.742-.743-.037-.037z" fill="#BDBDBE"/>
</svg>
