<svg xmlns="http://www.w3.org/2000/svg" fill="none" viewBox="0 0 56 40">
  <path d="M0 33.846A6.154 6.154 0 006.154 40h43.077a6.154 6.154 0 006.154-6.154v-6.154H0v6.154z" fill="#138808"/>
  <path d="M0 12.308h55.385v15.384H0V12.308z" fill="#EEE"/>
  <path d="M55.385 12.308V6.154A6.154 6.154 0 0049.23 0H6.154A6.154 6.154 0 000 6.154v6.154h55.385z" fill="#F93"/>
  <path d="M27.692 26.154a6.154 6.154 0 100-12.308 6.154 6.154 0 000 12.308z" fill="navy"/>
  <path d="M27.692 24.615a4.615 4.615 0 100-9.23 4.615 4.615 0 000 9.23z" fill="#EEE"/>
  <path d="M27.692 15.385l.225 3.483 1.54-3.131-1.123 3.303 2.622-2.305-2.303 2.623 3.303-1.124-3.131 1.541 3.483.225-3.483.225 3.13 1.54-3.302-1.123 2.303 2.621-2.622-2.303 1.123 3.303-1.54-3.13-.225 3.482-.224-3.483-1.542 3.131 1.125-3.303-2.623 2.303 2.305-2.622-3.304 1.124 3.131-1.54L23.077 20l3.483-.225-3.13-1.541 3.303 1.124-2.305-2.623 2.623 2.305-1.125-3.303 1.542 3.13.224-3.482z" fill="#6666B3"/>
  <path d="M27.692 21.538a1.538 1.538 0 100-3.076 1.538 1.538 0 000 3.076z" fill="navy"/>
</svg>
