<svg xmlns="http://www.w3.org/2000/svg" fill="none" viewBox="0 0 71 60">
  <g opacity=".4">
    <path d="M3.962 9.965c-3.918-.018-3.9 3.96-3.9 3.96l.185 41.779s.018 3.978 3.935 3.996l62.684.282c3.918.018 3.9-3.96 3.9-3.96l-.185-41.779s-.018-3.979-3.935-3.996L3.962 9.965z" fill="#5C913B"/>
    <path d="M3.918.018C0 0 .018 3.978.018 3.978l.176 39.79s.018 3.978 3.935 3.996l62.684.282c3.918.018 3.9-3.961 3.9-3.961l-.176-39.789S70.519.318 66.6.3L3.919.018z" fill="#A7D28B"/>
    <path d="M49.135 37.025c7.032.031 12.707-5.732 12.675-12.874-.032-7.142-5.758-12.957-12.79-12.989-7.032-.031-12.707 5.732-12.675 12.874.032 7.142 5.758 12.957 12.79 12.989z" fill="#77B255"/>
    <path d="M64.841 45.053l-58.766-.265c-1.62-.007-2.944-1.352-2.952-2.997L2.966 5.98C2.957 4.336 4.27 3.003 5.89 3.011l58.766.264c1.62.007 2.944 1.352 2.951 2.997l.159 35.81c.007 1.645-1.305 2.978-2.925 2.97zM5.899 5a.978.978 0 00-.975.99l.158 35.81a1 1 0 00.984.999l58.766.264a.98.98 0 00.975-.99l-.159-35.81a1 1 0 00-.983-.999L5.899 5z" fill="#5C913B"/>
    <path d="M27.424.123l15.671.07.212 47.87-15.67-.07-.213-47.87z" fill="#FFE8B6"/>
    <path d="M27.636 47.87l15.67.07.053 11.937-15.67-.07-.053-11.937z" fill="#FFAC33"/>
    <path d="M23.259 28.001c-.026-5.926-10.785-5.589-10.8-9.168-.008-1.732 1.62-2.57 3.512-2.562 3.183.014 3.759 2.094 5.2 2.1 1.02.005 1.51-.645 1.506-1.378-.007-1.703-2.552-3-4.988-3.456l-.008-1.641c-.004-1.025-.825-1.858-1.834-1.862-1.008-.005-1.822.823-1.817 1.845l.008 1.697c-2.65.605-4.928 2.465-4.914 5.51.025 5.695 10.784 5.512 10.802 9.515.006 1.383-1.465 2.76-3.89 2.75-3.638-.017-4.861-2.523-6.336-2.53-.721-.003-1.361.61-1.357 1.536.007 1.474 2.444 3.256 5.79 3.768l-.002.008.008 1.858c.004 1.023.827 1.858 1.836 1.863 1.007.002 1.82-.826 1.815-1.846l-.008-1.858c0-.02-.01-.038-.012-.056 3.004-.558 5.505-2.534 5.489-6.093z" fill="#5C913B"/>
  </g>
</svg>
