<svg xmlns="http://www.w3.org/2000/svg" fill="none" viewBox="0 0 24 25">
  <path d="M19.765 14.182v-1.386c.706-.727 2.057-2.04 2.394-3.722.1.056.039.092.15.092.535 0 .887-.694.887-1.55 0-.844-.463-1.526-.988-1.548.101-.364.15-.85.15-1.476 0-2.087-1.8-4.592-5.826-4.592-3.577 0-5.819 2.505-5.819 4.592 0 .605.036 1.102.1 1.487-.492.074-.88.73-.88 1.535 0 .857.433 1.551.97 1.551.11 0-.05-.036.05-.092.337 1.683 1.753 2.995 2.46 3.723V14.1c-2.824.347-4.942 1.855-4.942 3.364v.571c0 .573.581.573 1.154.573h13.22c.575 0 1.155 0 1.155-.573v-.572c0-1.412-2.117-2.82-4.235-3.281z" fill="#63521C"/>
  <path d="M11.294 19.829v-1.386c.706-.727 2.057-2.04 2.394-3.722.1.056.039.092.15.092.535 0 .887-.694.887-1.55 0-.844-.463-1.526-.988-1.547.101-.365.15-.852.15-1.477 0-2.087-1.8-4.592-5.826-4.592-3.578 0-5.82 2.505-5.82 4.592 0 .605.037 1.102.101 1.487-.492.074-.88.73-.88 1.535 0 .857.433 1.551.97 1.551.11 0-.05-.036.05-.091.337 1.682 1.753 2.994 2.46 3.722v1.304C2.117 20.094 0 21.602 0 23.111v.572c0 .573.58.573 1.153.573h13.222c.573 0 1.154 0 1.154-.574v-.572c0-1.412-2.117-2.82-4.235-3.281z" fill="#D9C341"/>
</svg>
