<svg xmlns="http://www.w3.org/2000/svg" fill="none" viewBox="0 0 180 180">
  <g opacity=".4">
    <path d="M90 180c49.706 0 90-40.294 90-90S139.706 0 90 0 0 40.294 0 90s40.294 90 90 90z" fill="#DD2E44"/>
    <path d="M90 157.501c37.28 0 67.5-30.22 67.5-67.5 0-37.279-30.22-67.5-67.5-67.5-37.279 0-67.5 30.221-67.5 67.5 0 37.28 30.221 67.5 67.5 67.5z" fill="#fff"/>
    <path d="M90 140.001c27.615 0 50-22.386 50-50s-22.385-50-50-50c-27.614 0-50 22.386-50 50s22.386 50 50 50z" fill="#DD2E44"/>
    <path d="M89.998 120.001c16.568 0 30-13.432 30-30 0-16.569-13.432-30-30-30-16.569 0-30 13.431-30 30 0 16.568 13.431 30 30 30z" fill="#fff"/>
    <path d="M89.998 105.001c8.285 0 15-6.716 15-15 0-8.284-6.715-15-15-15-8.284 0-15 6.716-15 15 0 8.284 6.716 15 15 15z" fill="#DD2E44"/>
    <path opacity=".2" d="M91.201 91.411l65.721 58.77s-13.235 16.88-39.45 25.545L87.897 92.101l3.304-.69z" fill="#000"/>
    <path d="M91.47 95a4.955 4.955 0 01-3.52-1.46 4.97 4.97 0 010-7.036l2.815-2.815a4.976 4.976 0 017.04 7.035l-2.82 2.815A4.936 4.936 0 0191.47 95z" fill="#FFAC33"/>
    <path d="M120.081 34.905c-2.015 10.395 0 23.455 0 23.455l35.27-36.94c1.455-7.27-2.64-19.66-8.59-21.19-5.95-1.53-20.395 4.015-26.68 34.675zm25.015 25.015c-10.395 2.015-23.455 0-23.455 0l36.94-35.27c7.27-1.455 19.66 2.64 21.19 8.59 1.53 5.95-4.015 20.395-34.675 26.68z" fill="#55ACEE"/>
    <path d="M163.992 22.423l-58.11 65.51c-1.81 1.81-8.365 4.41-12.55.23-4.18-4.18-2.095-10.4-.285-12.215l66.03-58.445s3.38-3.175 5.795-.76-.88 5.68-.88 5.68z" fill="#3A87C2"/>
  </g>
</svg>
