<svg xmlns="http://www.w3.org/2000/svg" fill="none" viewBox="0 0 72 72">
  <g opacity=".4">
    <path d="M36 72c19.882 0 36-16.118 36-36S55.882 0 36 0 0 16.118 0 36s16.118 36 36 36z" fill="#DD2E44"/>
    <path d="M36 63c14.912 0 27-12.087 27-27C63 21.09 50.912 9 36 9 21.09 9 9 21.09 9 36c0 14.914 12.09 27 27 27z" fill="#fff"/>
    <path d="M36 56c11.046 0 20-8.954 20-20s-8.954-20-20-20c-11.045 0-20 8.954-20 20s8.955 20 20 20z" fill="#DD2E44"/>
    <path d="M36 48c6.627 0 12-5.372 12-12 0-6.627-5.373-12-12-12-6.628 0-12 5.373-12 12 0 6.628 5.372 12 12 12z" fill="#fff"/>
    <path d="M36 42a6 6 0 100-12 6 6 0 000 12z" fill="#DD2E44"/>
    <path opacity=".2" d="M36.48 36.565l26.29 23.508s-5.294 6.752-15.78 10.218l-11.83-33.45 1.322-.276z" fill="#000"/>
    <path d="M36.588 38c-.51 0-1.018-.194-1.408-.584a1.988 1.988 0 010-2.814l1.126-1.126a1.99 1.99 0 012.816 2.814l-1.128 1.126c-.388.39-.896.584-1.406.584z" fill="#FFAC33"/>
    <path d="M48.033 13.962c-.806 4.158 0 9.382 0 9.382L62.14 8.568C62.723 5.66 61.085.704 58.705.092c-2.38-.612-8.158 1.606-10.672 13.87zm10.006 10.006c-4.158.806-9.382 0-9.382 0L63.433 9.86c2.908-.582 7.864 1.056 8.476 3.436.612 2.38-1.606 8.158-13.87 10.672z" fill="#55ACEE"/>
    <path d="M65.597 8.97L42.353 35.172c-.724.724-3.346 1.764-5.02.092-1.672-1.672-.838-4.16-.114-4.886L63.63 7.001s1.352-1.27 2.318-.304-.352 2.272-.352 2.272z" fill="#3A87C2"/>
  </g>
</svg>
