<svg xmlns="http://www.w3.org/2000/svg" fill="none" viewBox="0 0 84 62">
  <path d="M82.705 4.77C81.088 1.93 78.113 0 74.667 0H42v4.77h40.705zM0 47.691h84v4.77H0v-4.77zm42-19.077h42v4.77H42v-4.77zm0-9.538h42v4.77H42v-4.77zM0 38.154h84v4.77H0v-4.77zM9.333 62h65.334c3.446 0 6.421-1.93 8.038-4.77H1.295C2.912 60.07 5.887 62 9.333 62zM42 9.538h42v4.77H42v-4.77z" fill="#B22334"/>
  <path d="M.159 54.08c.04.223.084.444.137.661.061.241.136.472.215.706.208.618.46 1.214.777 1.772l.007.012h81.41l.005-.01c.315-.555.567-1.151.774-1.767a9.04 9.04 0 00.217-.718c.054-.214.098-.433.138-.655A8.995 8.995 0 0084 52.46H0c0 .556.065 1.093.159 1.62zM0 42.924h84v4.77H0v-4.77zm0-9.538v4.769h84v-4.77H0zm42-9.539h42v4.77H42v-4.77zm0-9.538h42v4.769H42v-4.77zM0 9.538c0-.555.07-1.09.159-1.619A9.238 9.238 0 000 9.54zM1.295 4.77l-.007.012.007-.012zM.299 7.26c.058-.243.14-.475.214-.708a9.16 9.16 0 00-.214.708zM42 9.539h42c0-.556-.065-1.095-.161-1.622a8.78 8.78 0 00-.138-.653 9.145 9.145 0 00-.219-.72 10.152 10.152 0 00-.775-1.765c.003-.003 0-.007-.002-.01H42v4.77z" fill="#EEE"/>
  <path d="M42 0H9.333C4.18 0 0 4.27 0 9.538v23.847h42V0z" fill="#3C3B6E"/>
  <path d="M4.669 6.5L6.11 7.572l-.55 1.73L7 8.23 8.442 9.3l-.55-1.73L9.333 6.5H7.551L7 4.769l-.548 1.732H4.669zm4.667 4.77l1.442 1.07-.551 1.73 1.44-1.07 1.442 1.068-.551-1.729L14 11.27h-1.783l-.55-1.731-.549 1.73H9.336zm9.333 0l1.442 1.07-.55 1.73L21 13l1.442 1.068-.55-1.729 1.441-1.07h-1.782L21 9.539l-.548 1.73h-1.783zm9.333 0l1.442 1.07-.55 1.73 1.44-1.07 1.441 1.068-.55-1.729 1.442-1.07h-1.783l-.55-1.731-.55 1.73h-1.782zM9.336 20.808l1.442 1.07-.551 1.73 1.44-1.069 1.442 1.069-.551-1.73L14 20.809h-1.783l-.55-1.731-.549 1.731H9.336zm9.333 0l1.442 1.07-.55 1.73L21 22.539l1.442 1.069-.55-1.73 1.441-1.07h-1.782L21 19.077l-.548 1.731h-1.783zm9.333 0l1.442 1.07-.55 1.73 1.44-1.069 1.441 1.069-.55-1.73 1.442-1.07h-1.783l-.55-1.731-.55 1.731h-1.782zm-14-14.307l1.442 1.07-.55 1.73 1.44-1.07 1.441 1.07-.55-1.73 1.442-1.07h-1.783l-.55-1.732-.55 1.732h-1.782zm9.334 0l1.442 1.07-.551 1.73 1.44-1.07 1.442 1.07-.551-1.73L28 6.501h-1.783l-.55-1.732-.549 1.732h-1.782zm9.333 0l1.442 1.07-.55 1.73L35 8.23l1.442 1.07-.55-1.73 1.441-1.07h-1.782L35 4.769l-.548 1.732h-1.783zm-28 9.538l1.442 1.07-.55 1.73L7 17.77l1.442 1.069-.55-1.73 1.441-1.07H7.551L7 14.308l-.548 1.731H4.669zm10.225 2.8l1.44-1.069 1.441 1.069-.55-1.73 1.442-1.07h-1.783l-.55-1.731-.55 1.731h-1.782l1.442 1.07-.55 1.73zm8.442-2.8l1.442 1.07-.551 1.73 1.44-1.069 1.442 1.069-.551-1.73L28 16.04h-1.783l-.55-1.731-.549 1.731h-1.782zm9.333 0l1.442 1.07-.55 1.73L35 17.77l1.442 1.069-.55-1.73 1.441-1.07h-1.782L35 14.308l-.548 1.731h-1.783zm-28 9.538l1.442 1.071-.55 1.729L7 27.309l1.442 1.068-.55-1.729 1.441-1.07H7.551L7 23.845l-.548 1.731H4.669zm10.225 2.8l1.44-1.068 1.441 1.068-.55-1.729 1.442-1.07h-1.783l-.55-1.732-.55 1.731h-1.782l1.442 1.071-.55 1.729zm8.442-2.8l1.442 1.071-.551 1.729 1.44-1.068 1.442 1.068-.551-1.729L28 25.578h-1.783l-.55-1.732-.549 1.731h-1.782zm9.333 0l1.442 1.071-.55 1.729L35 27.309l1.442 1.068-.55-1.729 1.441-1.07h-1.782L35 23.845l-.548 1.731h-1.783z" fill="#fff"/>
</svg>
