<svg xmlns="http://www.w3.org/2000/svg" fill="none" viewBox="0 0 32 33">
  <path d="M26.353 18.91v-1.848c.941-.97 2.743-2.72 3.192-4.963.133.074.051.122.2.122.713 0 1.182-.925 1.182-2.068 0-1.123-.617-2.033-1.317-2.062.135-.485.2-1.135.2-1.969C29.81 3.34 27.411 0 22.043 0c-4.77 0-7.76 3.34-7.76 6.122 0 .808.049 1.47.134 1.983-.656.1-1.174.973-1.174 2.047 0 1.143.578 2.068 1.293 2.068.148 0-.065-.048.068-.122.448 2.244 2.337 3.993 3.279 4.964V18.8c-3.765.463-6.589 2.473-6.589 4.485v.762c0 .764.775.764 1.538.764H30.46c.766 0 1.54 0 1.54-.764v-.762c0-1.884-2.823-3.762-5.647-4.376z" fill="#63521C"/>
  <path d="M15.059 26.439V24.59c.941-.97 2.742-2.72 3.191-4.963.134.075.052.123.2.123.714 0 1.183-.926 1.183-2.068 0-1.124-.617-2.034-1.317-2.062.135-.486.2-1.135.2-1.97 0-2.781-2.4-6.122-7.768-6.122-4.77 0-7.759 3.34-7.759 6.123 0 .807.048 1.47.134 1.983-.656.099-1.174.972-1.174 2.047 0 1.143.578 2.068 1.292 2.068.148 0-.065-.048.068-.123.45 2.244 2.338 3.994 3.28 4.964v1.738C2.823 26.792 0 28.803 0 30.814v.763c0 .764.775.764 1.538.764h17.628c.765 0 1.54 0 1.54-.765v-.763c0-1.882-2.824-3.76-5.647-4.374z" fill="#D9C341"/>
</svg>
