<svg xmlns="http://www.w3.org/2000/svg" fill="none" viewBox="0 0 56 40">
  <path d="M54.53 3.077C53.466 1.245 51.504 0 49.23 0H27.693v3.077h26.839zM0 30.769h55.385v3.077H0V30.77zm27.692-12.307h27.693v3.076H27.692v-3.076zm0-6.154h27.693v3.077H27.692v-3.077zM0 24.615h55.385v3.077H0v-3.077zM6.154 40H49.23c2.272 0 4.234-1.245 5.3-3.077H.854C1.92 38.755 3.882 40 6.154 40zM27.692 6.154h27.693V9.23H27.692V6.154z" fill="#B22334"/>
  <path d="M.105 34.89c.026.144.055.287.09.427.04.155.09.305.142.455.137.399.303.784.512 1.144l.005.007H54.53l.003-.006c.208-.358.374-.743.51-1.14.053-.152.104-.305.144-.463.035-.139.064-.28.09-.423a5.61 5.61 0 00.107-1.045H0c0 .359.043.705.105 1.045zM0 27.693h55.385v3.077H0v-3.077zm0-6.154v3.078h55.385v-3.078H0zm27.692-6.153h27.693v3.077H27.692v-3.077zm0-6.154h27.693v3.077H27.692V9.23zM0 6.154zm.854-3.077l-.005.008.005-.008zM.197 4.683c.038-.157.092-.306.141-.457a6.031 6.031 0 00-.141.457zm27.495 1.47h27.693c0-.358-.043-.705-.106-1.045a5.583 5.583 0 00-.091-.422 5.818 5.818 0 00-.145-.464 6.475 6.475 0 00-.512-1.145H27.692v3.077z" fill="#EEE"/>
  <path d="M27.692 0H6.154A6.154 6.154 0 000 6.154v15.384h27.692V0z" fill="#3C3B6E"/>
  <path d="M3.079 4.194l.95.69L3.666 6l.95-.69.95.69-.363-1.115.951-.691H4.979l-.363-1.117-.362 1.117H3.079zM6.156 7.27l.95.69-.363 1.116.95-.69.95.69-.363-1.115.95-.691H8.057l-.364-1.117-.361 1.117H6.156zm6.153 0l.951.69-.363 1.116.95-.69.95.69-.363-1.115.95-.691H14.21l-.363-1.117-.361 1.117H12.31zm6.154 0l.951.69-.363 1.116.95-.69.95.69-.363-1.115.95-.691h-1.175L20 6.154l-.36 1.116h-1.176zM6.156 13.425l.95.69-.363 1.116.95-.69.95.69-.363-1.115.95-.691H8.057l-.364-1.117-.361 1.117H6.156zm6.153 0l.951.69-.363 1.116.95-.69.95.69-.363-1.115.95-.691H14.21l-.363-1.117-.361 1.117H12.31zm6.154 0l.951.69-.363 1.116.95-.69.95.69-.363-1.115.95-.691h-1.175L20 12.308l-.361 1.117h-1.176zm-9.23-9.231l.95.69L9.82 6l.95-.69.95.69-.363-1.115.95-.691h-1.175l-.363-1.117-.361 1.117H9.232zm6.153 0l.951.69L15.974 6l.95-.69.95.69-.363-1.115.95-.691h-1.175l-.363-1.117-.361 1.117h-1.176zm6.154 0l.95.69L22.129 6l.95-.69.95.69-.363-1.115.95-.691H23.44l-.363-1.117-.362 1.117H21.54zM3.08 10.348l.95.69-.363 1.116.95-.69.95.69-.363-1.115.951-.691H4.979L4.616 9.23l-.362 1.117H3.079zm6.741 1.806l.95-.69.95.69-.363-1.115.95-.691h-1.175L10.77 9.23l-.361 1.117H9.232l.951.69-.363 1.116zm5.566-1.806l.951.69-.363 1.116.95-.69.95.69-.363-1.115.95-.691h-1.175l-.363-1.117-.361 1.117h-1.176zm6.154 0l.95.69-.362 1.116.95-.69.95.69-.363-1.115.95-.691H23.44l-.363-1.117-.362 1.117H21.54zM3.08 16.502l.95.69-.363 1.116.95-.69.95.69-.363-1.116.951-.69H4.979l-.363-1.117-.362 1.117H3.079zm6.741 1.806l.95-.69.95.69-.363-1.116.95-.69h-1.175l-.363-1.117-.361 1.117H9.232l.951.69-.363 1.116zm5.566-1.806l.951.69-.363 1.116.95-.69.95.69-.363-1.116.95-.69h-1.175l-.363-1.117-.361 1.117h-1.176zm6.154 0l.95.69-.362 1.116.95-.69.95.69-.363-1.116.95-.69H23.44l-.363-1.117-.362 1.117H21.54z" fill="#fff"/>
</svg>
