<svg xmlns="http://www.w3.org/2000/svg" fill="none" viewBox="0 0 22 17">
  <path d="M0 13.74c0 1.38 1.095 2.498 2.444 2.498h17.112c1.35 0 2.444-1.118 2.444-2.498v-2.498H0v2.498z" fill="#138808"/>
  <path d="M0 4.996h22v6.246H0V4.996z" fill="#EEE"/>
  <path d="M22 4.996V2.498C22 1.118 20.905 0 19.556 0H2.444C1.094 0 0 1.119 0 2.498v2.498h22z" fill="#F93"/>
  <path d="M11 10.617c1.35 0 2.445-1.118 2.445-2.498 0-1.38-1.095-2.498-2.445-2.498-1.35 0-2.444 1.118-2.444 2.498 0 1.38 1.094 2.498 2.444 2.498z" fill="navy"/>
  <path d="M11 9.993c1.012 0 1.833-.84 1.833-1.874 0-1.035-.82-1.874-1.833-1.874-1.012 0-1.833.84-1.833 1.874 0 1.035.82 1.874 1.833 1.874z" fill="#EEE"/>
  <path d="M11 6.245l.09 1.414.611-1.27-.446 1.34 1.041-.935-.915 1.065 1.312-.457-1.243.626 1.383.091-1.383.091 1.243.625-1.312-.455.915 1.064-1.041-.935.446 1.34-.612-1.27L11 9.993l-.09-1.414-.611 1.27.446-1.34-1.042.935.916-1.064-1.312.455 1.243-.625-1.383-.09 1.383-.092-1.243-.626 1.312.457-.916-1.065 1.042.935-.446-1.34.612 1.27L11 6.245z" fill="#6666B3"/>
  <path d="M11 8.744c.338 0 .611-.28.611-.625a.618.618 0 00-.61-.624.618.618 0 00-.612.624c0 .345.274.625.611.625z" fill="navy"/>
</svg>
