<svg xmlns="http://www.w3.org/2000/svg" fill="none" viewBox="0 0 40 40">
  <path d="M36.875 32.888v6.487H3.125v-6.487A7.488 7.488 0 019 25.575l11-2.45 11 2.45a7.488 7.488 0 015.875 7.313z" fill="#FFE33B"/>
  <path d="M31 25.575l-11-2.45-11 2.45a7.488 7.488 0 00-5.875 7.313v1.25A7.488 7.488 0 019 26.825l11-2.45 11 2.45a7.488 7.488 0 015.875 7.313v-1.25A7.488 7.488 0 0031 25.575z" fill="#998C3D"/>
  <path d="M30 34.375v5h-1.25v-5a.624.624 0 111.25 0z" fill="#998C3D"/>
  <path d="M23.75 20.625v2.5a3.75 3.75 0 01-7.5 0v-2.5h7.5z" fill="#FFDAA7"/>
  <path d="M10 39.375v-5a.624.624 0 111.25 0v5H10z" fill="#998C3D"/>
  <path d="M27.622 7.312v7.774A7.62 7.62 0 0120 22.708a7.622 7.622 0 01-7.622-7.622V8.562l15.244-1.25z" fill="#FFDAA7"/>
  <path d="M23.75 20.625v2.35a7.614 7.614 0 01-7.5 0v-2.35h7.5z" fill="#FDC475"/>
  <path d="M27.622 7.312v7.774A7.62 7.62 0 0120 22.708a7.622 7.622 0 01-7.622-7.622V8.562l15.244-1.25z" fill="#FFDAA7"/>
  <path d="M12.378 13.562l.858-4.414c.75.354 1.549.591 2.37.702 2.271.3 4.701-.765 7.411-1.13a4.85 4.85 0 012.991-.029 2.91 2.91 0 011.008.862c.405.61.616 1.33.606 2.062v1.947c.4-.377.74-.811 1.008-1.29.54-1 .773-2.137.669-3.269a6.609 6.609 0 00-1.174-3.378 6.696 6.696 0 00-3.75-2.5c-1.807-.416-3.572.071-5.945.726-.888.243-1.795.407-2.711.49a4.86 4.86 0 01-1.344.034c-1.61-.344-2.317-2.988-2.5-3.75a5.286 5.286 0 00-2.087 4.507A4.368 4.368 0 0010.886 7.4a8.493 8.493 0 001.492 6.161z" fill="#58565D"/>
  <path d="M27.622 12.865v-.001.001zm0-1.25a3.648 3.648 0 00-.606-2.062 2.914 2.914 0 00-1.008-.861 4.85 4.85 0 00-2.991.029c-2.71.364-5.14 1.43-7.41 1.13a8.065 8.065 0 01-2.371-.703l-.858 4.414c.286-1.471.572-1.693.857-3.164.75.354 1.55.591 2.372.702 2.27.3 4.7-.765 7.41-1.129a4.85 4.85 0 012.99-.03c.399.207.744.501 1.009.862.404.61.615 1.329.606 2.06v-1.248z" fill="#FDC475"/>
</svg>
