<svg xmlns="http://www.w3.org/2000/svg" fill="none" viewBox="0 0 220 48">
  <path fill="#fff" d="M0 0h220v47.949H0z"/>
  <path d="M48.355 29.615h5.509l.291-1.409H50.26l1.485-7.602h-1.638l-1.751 9.011zm6.894 0h1.637l1.752-9.011h-1.625l-1.764 9.011zm3.625-1.078s1.003 1.23 3.135 1.23c1.866 0 3.224-1.269 3.224-2.766 0-2.5-3.528-2.513-3.528-3.808 0-.685.774-1.231 1.599-1.231 1.155 0 1.904.673 1.904.673l.888-1.206s-.863-.977-2.78-.977c-1.713 0-3.261 1.13-3.261 2.741 0 2.437 3.528 2.475 3.528 3.808 0 .837-.837 1.256-1.548 1.256-1.358 0-2.158-.876-2.158-.876l-1.003 1.155zm9.426 1.078h1.624l1.485-7.602h2.945l.267-1.41h-7.514l-.267 1.41h2.932L68.3 29.615zm5.86 0h5.598l.266-1.409h-3.96l.47-2.424h3.033l.28-1.409h-3.034l.457-2.36h3.757l.28-1.41h-5.383l-1.764 9.012zm7.416 0H83.2l1.016-5.19c.101-.534.177-1.397.177-1.397h.026s.24.863.482 1.396l2.399 5.191h1.548l1.752-9.011h-1.625l-1.015 5.204a18.134 18.134 0 00-.178 1.396h-.025s-.229-.876-.47-1.396l-2.411-5.204h-1.549l-1.751 9.011zm13.111-3.807c0 2.297 1.612 3.96 4.1 3.96 2.716 0 5.343-2.5 5.343-5.445 0-2.247-1.637-3.872-4.112-3.872-2.741 0-5.33 2.463-5.33 5.357zm1.676-.09c0-2.08 1.802-3.769 3.643-3.769 1.434 0 2.436 1.003 2.436 2.475 0 2.133-1.84 3.846-3.642 3.846-1.434 0-2.437-1.04-2.437-2.551zm8.611 3.897h1.624l1.016-5.19c.101-.534.177-1.397.177-1.397h.026s.241.863.482 1.396l2.399 5.191h1.548l1.752-9.011h-1.625l-1.015 5.204a17.93 17.93 0 00-.178 1.396h-.025s-.229-.876-.47-1.396l-2.411-5.204h-1.549l-1.751 9.011z" fill="#000"/>
  <path fill-rule="evenodd" clip-rule="evenodd" d="M128.22 31.761h-6.938l3.309-16.981h5.715c.984 0 1.846.095 2.566.358 1.558.55 2.469 1.818 2.469 3.492 0 1.794-1.103 3.42-2.781 4.186v.048c1.367.502 2.062 1.794 2.062 3.3 0 2.607-1.63 4.425-3.812 5.19-.815.288-1.702.407-2.59.407zm-1.064-14.327l-.84 4.282h3.247c1.51 0 2.589-1.22 2.589-2.68 0-.932-.551-1.602-1.798-1.602h-3.198zm-1.319 6.77l-.959 4.903h3.559c.527 0 1.006-.096 1.414-.311a3.042 3.042 0 001.606-2.703c0-1.124-.743-1.89-2.062-1.89h-3.558zm47.189 7.557h-3.045l3.308-16.981h3.045l-1.798 9.225a6.864 6.864 0 005.315-4.48h3.413c-.744 2.45-2.675 4.506-5.044 5.73.067 2.373 1.634 3.811 3.61 4.17l-.57 2.934c-2.932-.617-5.171-3.094-5.559-6.163-.542.129-1.09.215-1.642.255l-1.033 5.31zm10.065-4.962c0 2.949 2.134 5.25 5.945 5.25 2.71 0 4.771-1.606 4.771-1.606l-.815-2.325s-1.822 1.342-3.788 1.342c-1.966 0-3.021-1.222-3.021-2.78 0-.145 0-.289.024-.456h8.415s.432-1.295.432-2.35c0-2.709-1.606-4.627-4.891-4.627-4.075 0-7.072 3.404-7.072 7.552zm3.596-2.661c.599-1.51 1.87-2.541 3.428-2.541 1.151 0 1.942.743 1.942 2.013 0 .264-.048.528-.048.528h-5.322zm8.703 7.624h3.044l.839-4.34c.576-3.02 2.734-5.058 4.556-5.058.431 0 .719.048.719.048l.599-2.997s-.335-.048-.719-.048c-1.87 0-3.548 1.486-4.363 3.164h-.024s.143-.431.239-.886l.408-2.11h-2.925l-2.373 12.227zm-37.585-2.83c0 2.015 1.727 3.117 3.62 3.117 2.589 0 3.981-2.205 3.981-2.205h.047s-.144.383-.24.887l-.19 1.03h2.803l1.464-7.551a7.6 7.6 0 00.118-1.199c0-2.829-2.253-3.764-4.483-3.764-2.636 0-4.841 1.319-4.841 1.319l.718 2.35s1.847-1.152 3.596-1.152c1.392 0 1.966.624 1.966 1.655 0 .167-.023.383-.071.671h-.457c-3.236 0-8.031.935-8.031 4.843zm3.069-.527c0-2.014 3.14-2.23 4.532-2.23h.504l-.05.24c-.287 1.487-1.798 3.261-3.404 3.261-1.078 0-1.582-.575-1.582-1.27zm-9.548 3.644c-3.81 0-5.945-2.301-5.945-5.25 0-4.148 2.996-7.552 7.073-7.552 3.285 0 4.89 1.918 4.89 4.627 0 1.055-.432 2.35-.432 2.35h-8.415c-.024.167-.024.311-.024.455 0 1.559 1.055 2.781 3.021 2.781s3.788-1.342 3.788-1.342l.816 2.325s-2.061 1.606-4.772 1.606zm1.079-10.452c-1.558 0-2.828 1.03-3.428 2.54h5.323s.047-.263.047-.527c0-1.27-.791-2.013-1.942-2.013zm-16.888 10.165h3.045l.839-4.34c.575-3.02 2.733-5.058 4.555-5.058.432 0 .719.048.719.048l.6-2.997s-.336-.048-.719-.048c-1.87 0-3.549 1.486-4.364 3.164h-.024s.144-.431.239-.886l.408-2.11h-2.924l-2.374 12.227z" fill="#000"/>
  <path d="M33.846 8.462H16.923a7.051 7.051 0 00-7.051 7.05v16.924a7.051 7.051 0 007.051 7.051h16.923a7.051 7.051 0 007.051-7.051V15.513a7.051 7.051 0 00-7.05-7.051z" fill="url(#743id6agOQHa)"/>
  <path d="M23.162 29.328c.81 2.477 2.11 4.73 3.791 6.643a12.082 12.082 0 007.826-4.374 19.123 19.123 0 01-8.8.22 3.775 3.775 0 01-2.817-2.489z" fill="#1269FF"/>
  <path d="M25.385 36.072c.531 0 1.055-.035 1.568-.101a19.007 19.007 0 01-3.791-6.643 3.768 3.768 0 01-.197-1.204c0-.945.348-1.81.923-2.471a18.984 18.984 0 00-4.459 8.854 12.043 12.043 0 005.956 1.565z" fill="#5C9DFF"/>
  <path d="M13.623 26.817a12.12 12.12 0 005.806 7.69 18.981 18.981 0 014.467-8.864 3.76 3.76 0 013.57-1.216 19.114 19.114 0 00-3.908-.405 18.95 18.95 0 00-9.935 2.795z" fill="#9EC6FF"/>
  <path d="M27.466 24.427a19.114 19.114 0 00-3.908-.405 18.95 18.95 0 00-9.935 2.795 12.128 12.128 0 01-.336-2.843c0-3.772 1.727-7.142 4.434-9.36 5.932 1.79 10.637 6.408 12.57 12.277a3.785 3.785 0 00-2.825-2.464z" fill="#D1E3FF"/>
  <path d="M36.886 21.792c0-5.354-4.461-9.915-11.502-9.915a12.048 12.048 0 00-7.665 2.737 19.077 19.077 0 0112.622 12.433c.11.348.212.719.303 1.075 3.44-.076 6.242-2.873 6.242-6.33z" fill="#fff"/>
  <path fill-rule="evenodd" clip-rule="evenodd" d="M30.064 28.27c-.089-.348-.23-.852-.337-1.19a3.19 3.19 0 00-2.376-2.07 3.165 3.165 0 00-3.008 1.024c-.512.582-.794 1.263-.783 2.09-.002.37.05.68.165 1.014a3.185 3.185 0 002.376 2.096c1.24.26 2.492.397 3.807.397 1.644 0 3.2-.208 4.72-.61l.49-.129.254.919-.131.16a12.677 12.677 0 01-9.856 4.696 12.893 12.893 0 01-6.25-1.643 12.715 12.715 0 01-6.09-8.068 12.987 12.987 0 01-.353-2.982c0-3.958 1.813-7.494 4.651-9.82a12.89 12.89 0 018.042-2.872c7.312 0 12.096 4.773 12.096 10.51 0 3.79-3.07 6.845-6.828 6.925l-.473.01-.116-.458zm.794-1.56c-1.842-5.77-6.228-10.238-11.872-12.3 1.834-1.244 3.998-1.946 6.399-1.937 6.767 0 10.906 4.348 10.906 9.32 0 2.972-2.292 5.414-5.201 5.707a23.482 23.482 0 00-.232-.788zm-16.976-2.736c0-3.472 1.538-6.585 3.973-8.695 4.63 1.483 8.423 4.65 10.637 8.852a4.295 4.295 0 00-.907-.287 19.967 19.967 0 00-4.027-.417 19.819 19.819 0 00-9.519 2.46 11.329 11.329 0 01-.157-1.913zm10.243.651a4.381 4.381 0 00-.675.624 19.916 19.916 0 00-4.416 8.317 11.524 11.524 0 01-4.723-6.468 18.099 18.099 0 019.247-2.481c.19 0 .38.003.567.008zm1.26 10.852a11.187 11.187 0 01-5.28-1.28 18.085 18.085 0 012.295-5.58c.037.311.105.62.196.896a19.877 19.877 0 003.173 5.958c-.127.004-.255.006-.384.006zm1.805-.141a18.185 18.185 0 01-2.192-3.208c.274.119.562.21.86.271 1.297.271 2.671.42 4.05.422 1.052-.001 2.1-.087 3.118-.249a11.459 11.459 0 01-5.836 2.764z" fill="#003DAD"/>
  <defs>
    <linearGradient id="743id6agOQHa" x1="25.385" y1="8.462" x2="25.385" y2="39.487" gradientUnits="userSpaceOnUse">
      <stop stop-color="#FF40C0"/>
      <stop offset="1" stop-color="#FF7066"/>
    </linearGradient>
  </defs>
</svg>
