<svg xmlns="http://www.w3.org/2000/svg" fill="none" viewBox="0 0 35 35">
  <path d="M3.375 14.033c-1.08 0-1.954.874-1.954 1.954v2.131a1.953 1.953 0 103.908 0v-2.131c0-1.08-.874-1.954-1.954-1.954z" fill="#0066D9"/>
  <path d="M30.73 14.033c-1.08 0-1.954.874-1.954 1.954v2.131a1.953 1.953 0 103.908 0v-2.131c0-1.08-.874-1.954-1.954-1.954z" fill="#4285F4"/>
  <path d="M10.125 20.428c-1.08 0-1.954.874-1.954 1.954v2.131a1.953 1.953 0 103.908 0v-2.131c0-1.08-.874-1.954-1.954-1.954zm0-12.79c-1.08 0-1.954.874-1.954 1.954v6.972h.002a1.954 1.954 0 003.904 0h.002V9.592c0-1.08-.874-1.954-1.954-1.954z" fill="#EA4335"/>
  <path d="M23.98 7.638c-1.08 0-1.954.874-1.954 1.954v2.132a1.953 1.953 0 103.908 0V9.592c0-1.08-.874-1.954-1.954-1.954z" fill="#34A853"/>
  <path d="M17.053 1.421c-1.08 0-1.954.874-1.954 1.954v2.132a1.953 1.953 0 103.908 0V3.375c0-1.08-.874-1.954-1.954-1.954zm0 25.224c-1.08 0-1.954.874-1.954 1.954v2.131a1.953 1.953 0 103.908 0V28.6c0-1.08-.874-1.954-1.954-1.954z" fill="#FAB908"/>
  <path d="M23.98 15.632c-1.08 0-1.954.874-1.954 1.954v6.927a1.953 1.953 0 103.908 0v-6.928c0-1.08-.874-1.953-1.954-1.953z" fill="#34A853"/>
  <path d="M19.007 11.368a1.953 1.953 0 10-3.908 0v11.369a1.953 1.953 0 103.908 0V11.368z" fill="#FAB908"/>
</svg>
