<svg xmlns="http://www.w3.org/2000/svg" fill="none" viewBox="0 0 36 35">
  <path d="M3.527 14.033c-1.129 0-2.042.874-2.042 1.954v2.131c0 1.08.913 1.954 2.042 1.954 1.128 0 2.042-.874 2.042-1.954v-2.131c0-1.08-.914-1.954-2.042-1.954z" fill="#0066D9"/>
  <path d="M32.113 14.033c-1.128 0-2.042.874-2.042 1.954v2.131c0 1.08.913 1.954 2.042 1.954 1.129 0 2.042-.874 2.042-1.954v-2.131c0-1.08-.913-1.954-2.042-1.954z" fill="#4285F4"/>
  <path d="M10.58 20.428c-1.128 0-2.041.874-2.041 1.954v2.131c0 1.08.913 1.954 2.042 1.954 1.128 0 2.042-.874 2.042-1.954v-2.131c0-1.08-.914-1.954-2.042-1.954zm0-12.79c-1.128 0-2.041.874-2.041 1.954v6.972h.002c.026 1.059.928 1.91 2.04 1.91s2.014-.851 2.04-1.91h.002V9.592c0-1.08-.914-1.954-2.042-1.954z" fill="#EA4335"/>
  <path d="M25.06 7.638c-1.13 0-2.043.874-2.043 1.954v2.132c0 1.08.914 1.954 2.042 1.954 1.129 0 2.042-.874 2.042-1.954V9.592c0-1.08-.913-1.954-2.042-1.954z" fill="#34A853"/>
  <path d="M17.82 1.421c-1.129 0-2.042.874-2.042 1.954v2.132c0 1.08.913 1.954 2.042 1.954 1.129 0 2.042-.874 2.042-1.954V3.375c0-1.08-.913-1.954-2.042-1.954zm0 25.224c-1.129 0-2.042.874-2.042 1.954v2.131c0 1.08.913 1.954 2.042 1.954 1.129 0 2.042-.874 2.042-1.954V28.6c0-1.08-.913-1.954-2.042-1.954z" fill="#FAB908"/>
  <path d="M25.06 15.632c-1.13 0-2.043.874-2.043 1.954v6.927c0 1.08.914 1.954 2.042 1.954 1.129 0 2.042-.874 2.042-1.954v-6.928c0-1.08-.913-1.953-2.042-1.953z" fill="#34A853"/>
  <path d="M19.862 11.368c0-1.08-.913-1.954-2.042-1.954-1.129 0-2.042.874-2.042 1.954v11.369c0 1.08.913 1.954 2.042 1.954 1.129 0 2.042-.874 2.042-1.954V11.368z" fill="#FAB908"/>
</svg>
