<svg xmlns="http://www.w3.org/2000/svg" fill="none" viewBox="0 0 31 31">
  <path fill-rule="evenodd" clip-rule="evenodd" d="M29.599 26.172c-.294.745-.971 1.795-1.932 2.534a6.325 6.325 0 01-2.126 1.105c-.97.288-2.163.385-3.65.385H8.305c-1.486 0-2.68-.098-3.65-.385a6.326 6.326 0 01-2.125-1.105c-.96-.739-1.638-1.789-1.932-2.534C.006 24.67 0 22.965 0 21.892V8.304c0-1.074.006-2.778.597-4.28.294-.746.971-1.795 1.932-2.535A6.325 6.325 0 014.654.384C5.624.097 6.818 0 8.304 0h13.588c1.486 0 2.68.097 3.65.384a6.34 6.34 0 012.125 1.105c.96.74 1.638 1.79 1.932 2.535.59 1.502.597 3.206.597 4.28v13.588c0 1.073-.006 2.777-.598 4.28z" fill="url(#X5UdzBS4MYua)"/>
  <defs>
    <linearGradient id="X5UdzBS4MYua" x1="15.098" y1="0" x2="15.098" y2="30.196" gradientUnits="userSpaceOnUse">
      <stop stop-color="#F452FF"/>
      <stop offset="1" stop-color="#832BC1"/>
    </linearGradient>
  </defs>
</svg>
