<?xml version="1.0" standalone="no"?>
<!DOCTYPE svg PUBLIC "-//W3C//DTD SVG 20010904//EN"
 "http://www.w3.org/TR/2001/REC-SVG-20010904/DTD/svg10.dtd">
<svg version="1.0" xmlns="http://www.w3.org/2000/svg"
 width="595.000000pt" height="595.000000pt" viewBox="0 0 595.000000 595.000000"
 preserveAspectRatio="xMidYMid meet">
<metadata>
Created by potrace 1.14, written by Peter Selinger 2001-2017
</metadata>
<g transform="translate(0.000000,595.000000) scale(0.100000,-0.100000)"
fill="#000000" stroke="none">
<path d="M1389 5549 c0 -22 0 -102 0 -179 0 -77 0 -148 0 -158 1 -16 15 -17
176 -17 109 0 176 -4 178 -10 2 -5 3 -497 3 -1092 l-1 -1083 30 -1 c143 -3
333 -1 341 3 6 4 9 420 9 1092 0 597 2 1087 5 1087 3 1 84 2 180 3 l175 1 0
195 0 195 -547 1 -548 1 -1 -38z"/>
<path d="M2630 4299 c0 -1024 3 -1289 13 -1290 13 -1 347 -1 360 0 4 1 7 253
7 561 l0 560 145 0 145 0 1 -27 c0 -16 1 -268 1 -560 l1 -533 21 -1 c113 -3
348 -1 353 4 9 9 10 2538 1 2558 -6 14 -30 16 -190 15 l-183 -1 -2 -500 c-1
-275 -2 -514 -2 -532 l-1 -32 -145 1 -145 0 0 532 0 533 -190 0 -190 0 0
-1288z"/>
<path d="M3962 4298 l3 -1291 400 1 c220 0 414 1 432 1 l31 1 2 195 1 195
-246 0 -245 0 2 352 3 353 173 0 172 0 0 207 0 208 -175 0 -175 0 2 338 3 337
240 0 240 0 3 196 2 195 -435 1 -435 1 2 -1290z"/>
<path d="M1254 4663 c-16 -9 -40 -25 -53 -37 -46 -41 -52 -74 -53 -281 0 -221
6 -241 86 -308 l46 -38 0 -544 0 -545 -53 0 -52 0 0 -987 0 -988 220 0 c121 0
231 3 245 7 94 24 181 76 227 135 169 212 153 672 -28 854 l-49 48 41 42 c99
103 130 188 131 362 1 293 -104 454 -332 507 -58 14 -83 16 -192 19 l-68 1 0
545 0 544 46 38 c79 66 84 83 84 307 0 114 -4 206 -11 223 -33 88 -154 137
-235 96z m312 -2062 c82 -37 116 -118 111 -267 -5 -138 -50 -213 -141 -234
-63 -14 -71 -7 -69 61 1 32 2 149 2 259 l1 200 28 0 c15 0 45 -9 68 -19z m25
-807 c59 -40 81 -104 85 -249 5 -216 -46 -315 -168 -324 l-38 -3 0 305 0 304
43 -4 c23 -3 58 -16 78 -29z"/>
<path d="M2519 2936 c-2 -2 -28 -7 -58 -10 -155 -17 -274 -140 -311 -321 -17
-81 -18 -1283 -1 -1370 24 -131 106 -244 211 -293 44 -21 73 -27 146 -29 138
-4 213 25 292 111 55 59 90 135 108 228 12 66 7 1290 -6 1353 -36 177 -157
303 -312 321 -29 3 -56 8 -59 10 -3 2 -8 2 -10 0z m63 -313 c10 -9 22 -32 28
-52 6 -22 10 -274 10 -657 0 -648 -1 -668 -42 -702 -24 -19 -72 -20 -99 -1
-50 35 -50 46 -47 729 3 594 4 638 21 663 31 48 89 57 129 20z"/>
<path d="M3432 2928 c-216 -24 -347 -209 -338 -478 6 -173 58 -291 270 -610
203 -305 234 -373 223 -494 -12 -132 -80 -197 -160 -154 -54 28 -86 122 -88
260 -1 37 -4 66 -8 64 -4 -3 -47 -8 -97 -12 -49 -4 -100 -8 -114 -9 -14 -2
-36 -3 -49 -4 l-24 -1 6 -107 c14 -229 77 -361 203 -427 135 -70 356 -57 467
28 73 56 130 167 145 281 11 80 7 228 -8 281 -25 97 -120 272 -255 474 -198
294 -227 354 -226 465 1 112 36 175 96 175 61 0 100 -70 111 -200 l7 -81 71 5
c107 8 189 17 204 21 15 5 8 116 -14 213 -50 223 -203 335 -422 310z"/>
<path d="M4268 2910 c-93 -35 -154 -92 -199 -186 -83 -172 -73 -361 31 -579
33 -68 115 -207 143 -240 37 -44 195 -295 224 -355 80 -165 42 -370 -69 -370
-86 0 -135 101 -137 284 l-1 48 -85 -6 c-124 -10 -189 -17 -199 -23 -8 -5 -3
-120 9 -212 21 -154 100 -273 219 -327 55 -26 72 -28 176 -29 136 0 189 13
256 64 63 47 109 116 136 205 31 96 33 303 4 386 -17 51 -81 190 -109 235 -28
46 -221 340 -226 345 -14 12 -61 92 -97 165 -37 74 -39 84 -39 170 0 73 4 97
21 125 22 38 58 56 95 47 25 -7 67 -60 73 -93 13 -70 18 -112 18 -146 l-1 -40
72 6 c139 11 192 17 206 21 10 4 12 22 8 78 -18 235 -105 381 -256 427 -82 26
-206 26 -273 0z"/>
<path d="M1184 778 c-9 -14 -9 -422 0 -436 9 -15 102 -7 131 12 47 31 61 122
27 185 -17 32 -17 36 -1 68 27 54 12 140 -29 162 -29 16 -120 22 -128 9z m94
-70 c27 -27 9 -108 -23 -108 -7 0 -11 23 -12 60 -1 61 9 74 35 48z m2 -187
c24 -46 2 -136 -29 -117 -14 9 -10 136 6 136 7 0 17 -9 23 -19z"/>
<path d="M1446 760 c-3 -14 -8 -45 -11 -70 -3 -25 -10 -70 -15 -100 -5 -30
-12 -77 -16 -105 -3 -27 -10 -70 -14 -95 -10 -53 -7 -59 25 -56 32 3 32 3 39
51 3 22 5 41 6 42 1 5 60 -1 61 -6 5 -38 10 -68 13 -76 5 -14 62 -13 60 0 -1
6 -5 35 -8 65 -6 47 -13 100 -31 210 -2 14 -7 45 -10 70 -4 25 -9 52 -10 60
-2 8 -4 20 -4 26 -1 6 -18 11 -41 10 -34 -1 -40 -4 -44 -26z m58 -197 c6 -59
5 -63 -13 -63 -19 0 -20 5 -15 53 3 28 7 60 7 69 3 36 15 1 21 -59z"/>
<path d="M1630 560 l0 -226 78 1 77 0 0 30 c0 28 -3 30 -37 31 -21 0 -41 3
-44 7 -3 3 -7 90 -8 194 l-1 188 -32 1 -33 0 0 -226z"/>
<path d="M1810 560 l0 -226 78 1 77 1 0 29 c0 28 -3 30 -44 35 l-45 5 1 188
c1 103 -2 187 -5 188 -4 1 -19 2 -34 3 l-28 3 0 -227z"/>
<path d="M2033 778 c-12 -6 -27 -24 -34 -41 -24 -57 -12 -97 65 -221 39 -64
45 -96 21 -116 -20 -16 -32 -6 -39 34 -5 25 -11 33 -24 31 -9 -2 -24 -4 -32
-4 -12 -1 -15 -10 -12 -41 10 -105 144 -125 179 -26 16 49 6 91 -42 166 -58
92 -68 116 -61 145 8 33 28 28 41 -11 9 -25 14 -29 43 -26 29 3 32 6 26 30
-14 55 -24 73 -49 82 -32 12 -54 12 -82 -2z"/>
<path d="M2316 759 c-26 -30 -26 -33 -26 -188 0 -87 5 -172 10 -188 12 -32 45
-53 86 -53 31 0 74 41 75 72 6 102 3 308 -4 331 -21 63 -98 77 -141 26z m84
-199 c0 -115 -3 -150 -14 -159 -25 -21 -31 8 -31 159 -1 147 5 180 31 159 11
-9 14 -46 14 -159z"/>
<path d="M2514 775 c-2 -5 -2 -107 -1 -225 l2 -214 30 -1 30 0 1 91 c0 50 4
96 8 102 4 7 17 10 32 6 22 -6 24 -3 24 30 0 33 -2 36 -29 36 -25 0 -29 4 -32
33 -2 17 -3 44 -1 60 3 25 7 27 48 27 43 0 44 1 44 33 l0 33 -76 -1 c-42 0
-78 -4 -80 -10z"/>
<path d="M2827 770 c-29 -23 -42 -72 -32 -118 3 -16 28 -65 56 -108 39 -62 49
-86 47 -114 -5 -64 -50 -43 -53 25 0 6 -8 9 -17 9 -10 -1 -25 -2 -34 -3 -14
-1 -16 -9 -11 -43 14 -104 144 -122 177 -24 16 48 5 92 -43 169 -68 110 -71
116 -58 143 15 33 29 30 39 -8 4 -18 11 -32 15 -30 4 1 18 2 32 2 20 0 24 4
21 23 -3 12 -5 28 -5 35 -1 7 -12 24 -26 37 -30 31 -73 32 -108 5z"/>
<path d="M2985 781 c-3 -2 -5 -17 -5 -33 0 -27 10 -34 48 -29 14 2 13 17 15
-203 2 -166 3 -179 21 -182 43 -6 46 2 45 125 -1 253 -1 262 19 260 36 -3 42
2 42 34 l0 32 -90 0 c-50 1 -93 -1 -95 -4z"/>
<path d="M3202 781 c-10 -8 -11 -434 0 -442 4 -3 38 -5 76 -4 l67 1 3 32 c3
31 2 32 -35 33 -21 1 -41 1 -45 0 -3 0 -6 28 -7 63 l0 64 29 -2 c22 -2 29 3
32 18 7 40 -2 56 -32 56 -28 0 -28 1 -28 60 1 50 4 61 17 59 9 -1 29 -1 44 0
26 1 28 4 25 33 l-3 32 -67 1 c-37 1 -71 -1 -76 -4z"/>
<path d="M3391 780 c-5 -3 -8 -104 -7 -225 l1 -220 65 0 c84 -1 87 0 87 35 0
31 -13 36 -69 31 -16 -2 -18 7 -18 64 0 57 2 66 18 64 36 -3 42 1 42 36 0 32
-2 35 -30 35 l-30 0 0 61 c0 57 1 60 23 59 55 -5 63 -1 63 30 0 17 -4 31 -10
31 -35 4 -128 4 -135 -1z"/>
<path d="M3576 782 c-3 -2 -5 -104 -6 -226 l0 -221 78 0 77 0 3 33 c3 30 1 33
-20 32 -73 -6 -67 -21 -70 192 l-3 192 -27 1 c-15 1 -30 0 -32 -3z"/>
<path d="M3892 780 c-29 -12 -51 -63 -45 -109 2 -20 26 -72 53 -117 58 -97 66
-122 45 -149 -15 -20 -15 -20 -30 -1 -8 11 -15 30 -15 43 0 18 -4 22 -22 19
-13 -3 -28 -5 -35 -5 -15 -1 -7 -68 13 -98 29 -45 119 -42 149 4 31 47 17 116
-44 215 -38 62 -52 94 -49 115 4 37 28 36 42 -2 9 -25 16 -29 39 -27 32 4 35
26 11 77 -20 43 -61 55 -112 35z"/>
<path d="M4062 772 c-9 -20 -7 -420 3 -430 4 -4 18 -7 31 -7 27 -1 26 -3 26
118 l0 78 26 -3 27 -3 -1 -92 c0 -51 2 -93 5 -94 3 -1 18 -2 34 -3 l27 -3 -2
225 c-3 211 -4 225 -22 228 -38 5 -43 -4 -41 -86 2 -88 -3 -104 -31 -98 -17 3
-19 13 -20 85 0 46 -3 86 -7 90 -15 15 -47 12 -55 -5z"/>
<path d="M4323 775 c-33 -23 -39 -59 -37 -220 2 -188 0 -172 29 -200 39 -40
108 -28 133 22 19 42 17 325 -4 368 -21 45 -79 60 -121 30z m72 -215 c0 -121
-3 -153 -15 -160 -9 -6 -17 -5 -22 3 -13 20 -10 301 4 315 26 26 34 -7 33
-158z"/>
<path d="M4494 778 c-4 -6 -2 -29 11 -98 2 -14 7 -52 11 -85 3 -33 7 -67 9
-75 1 -8 6 -42 10 -75 5 -33 9 -64 10 -70 1 -5 3 -17 3 -25 2 -21 50 -21 56 0
3 8 8 42 12 75 5 33 9 63 10 68 1 4 2 19 3 35 3 43 18 6 25 -58 13 -122 20
-141 55 -136 15 3 32 88 56 291 3 28 9 74 14 103 4 28 8 52 7 53 -5 4 -47 4
-54 0 -5 -3 -13 -35 -17 -71 -12 -111 -22 -176 -24 -160 -2 8 -4 22 -6 30 -1
8 -5 47 -9 85 -10 108 -14 122 -36 120 -27 -2 -27 -2 -35 -75 -4 -36 -9 -74
-11 -85 -2 -11 -5 -35 -6 -53 -2 -58 -11 -29 -22 78 -14 133 -16 138 -43 136
-14 0 -27 -4 -29 -8z"/>
</g>
</svg>
