<svg xmlns="http://www.w3.org/2000/svg" fill="none" viewBox="0 0 36 36">
  <g clip-path="url(#pg1cBg_Shzga)">
    <path d="M30.881 34.926H1.687A1.47 1.47 0 01.22 33.458V4.264c0-.81.658-1.468 1.468-1.468h29.194c.81 0 1.468.658 1.468 1.468v29.194a1.47 1.47 0 01-1.468 1.468z" fill="#EFF3F5"/>
    <path d="M32.35 33.463v1.075A1.46 1.46 0 0130.886 36h-29.2a1.46 1.46 0 01-1.462-1.462v-1.075c0 .81.653 1.463 1.463 1.463H30.88c.81 0 1.468-.659 1.468-1.463z" fill="#C6C1C1"/>
    <path d="M8.933 26.848h10.935l12.481-4.275V8.617L8.933 26.848z" fill="#D3D3D3"/>
    <path d="M27.787 9.866H4.776v1.429h23.011V9.866zm0 5.518H4.776v1.43h23.011v-1.43zm0 5.518H4.776v1.43h23.011v-1.43zm0 5.524H4.776v1.429h23.011v-1.429z" fill="#BDBDBE"/>
    <path d="M18.028 23.484a.812.812 0 01-.208.107.556.556 0 01-.152.056l-5.974 2.245-1.805-1.806 2.239-5.973c.016-.051.033-.107.056-.158.028-.073.067-.14.112-.208l5.732 5.737z" fill="#FCD66F"/>
    <path d="M10.502 24.705l-.619-.619 2.239-5.973c.017-.051.034-.107.056-.158.028-.073.068-.14.113-.208l2.2 1.609-3.989 5.349z" fill="#FBD984"/>
    <path d="M18.028 23.484a.812.812 0 01-.208.107.557.557 0 01-.152.056l-5.974 2.245-.618-.619 5.349-3.994 1.603 2.205z" fill="#E6AC43"/>
    <path d="M16.42 21.285l-5.344 3.994-2.143 1.57 1.569-2.144 3.994-5.344 1.923 1.924z" fill="#FCD66F"/>
    <path d="M8.933 26.848l2.756-.95-1.806-1.806-.95 2.756z" fill="#2E435A"/>
    <path d="M31.517 10.046L18.259 23.304a1.089 1.089 0 01-.225.18.812.812 0 01-.208.107.555.555 0 01-.152.056c-.462.13-.973.017-1.339-.348a1.36 1.36 0 01-.31-1.451.9.9 0 01.13-.254c.05-.078.107-.157.18-.225L29.593 8.111l1.924 1.935z" fill="#324A5E"/>
    <path d="M14.4 19.451L27.664 6.187l1.93 1.93L16.328 21.38a1.361 1.361 0 01-1.929 0 1.371 1.371 0 010-1.93z" fill="#445B69"/>
    <path d="M27.664 6.187L14.4 19.451a1.094 1.094 0 01-.225.18 1.362 1.362 0 01-2.048-1.513c.017-.05.034-.107.057-.157.028-.073.067-.141.112-.208a.858.858 0 01.18-.226L25.734 4.264l1.93 1.923z" fill="#445B69"/>
    <path d="M27.748 6.277L14.091 19.935c.067-.174.168-.343.31-.484L27.663 6.187l.084.09zM16.026 21.853L29.677 8.201l-.084-.084L16.329 21.38l-.303.472z" fill="#687D87"/>
    <path d="M31.345 6.532l-1.67 1.67 1.841 1.842 1.671-1.67-1.842-1.842z" fill="#DEDEDF"/>
    <path d="M29.42 4.61l-1.671 1.67 1.841 1.84 1.67-1.67-1.84-1.842z" fill="#E5E5E5"/>
    <path d="M27.404 2.59l-1.67 1.67 1.929 1.93 1.67-1.672-1.929-1.929z" fill="#EFF3F5"/>
    <path d="M29.333 4.52l-1.67 1.67.087.088 1.67-1.67-.087-.088zm1.931 1.927l-1.671 1.67.084.084 1.67-1.67-.084-.084z" fill="#DEDEDF"/>
    <path d="M35.533 6.03l-2.346 2.346-1.845-1.845 2.937-2.937 1.254 1.255a.835.835 0 010 1.181z" fill="#A72A45"/>
    <path d="M32.353 1.677l-2.935 2.936 1.842 1.841 2.935-2.935-1.842-1.842z" fill="#D1395D"/>
    <path d="M32.355 1.67l-2.936 2.937-2.014-2.014L29.75.248a.835.835 0 011.182 0l1.423 1.423zm1.84 1.84l-2.936 2.936.084.083 2.935-2.935-.083-.084z" fill="#DF4666"/>
    <path d="M32.264 1.584L29.33 4.519l.087.088 2.936-2.936-.088-.087z" fill="#A72A45"/>
    <path d="M34.195 3.51l-2.936 2.936.084.083 2.935-2.935-.083-.084z" fill="#621A21"/>
    <path d="M30.765 7.113l-.513.513 1.841 1.841.513-.513-1.841-1.841z" fill="#C6C1C1"/>
    <path d="M28.843 5.187l-.513.513 1.842 1.842.513-.513-1.842-1.842z" fill="#D3D3D3"/>
    <path d="M26.823 3.169l-.514.513 1.93 1.929.513-.513-1.93-1.93z" fill="#DEDEDF"/>
    <path d="M28.752 5.101l-.513.513.088.088.513-.513-.088-.088zm1.931 1.927l-.513.513.083.083.513-.513-.083-.083z" fill="#BDBDBE"/>
    <path d="M29.333 4.52l-1.67 1.67.087.088 1.67-1.67-.087-.088z" fill="#C6C1C1"/>
    <path d="M31.264 6.447l-1.671 1.67.084.084 1.67-1.67-.084-.084z" fill="#BDBDBE"/>
  </g>
  <defs>
    <clipPath id="pg1cBg_Shzga">
      <path fill="#fff" d="M0 0h36v36H0z"/>
    </clipPath>
  </defs>
</svg>
