<svg xmlns="http://www.w3.org/2000/svg" fill="none" viewBox="0 0 14 14">
  <g clip-path="url(#d1EqpRdPKeOa)">
    <path d="M12.01 13.582H.655a.571.571 0 01-.57-.57V1.657a.57.57 0 01.57-.57H12.01a.57.57 0 01.571.57V13.01a.571.571 0 01-.57.571z" fill="#EFF3F5"/>
    <path d="M12.58 13.014v.417a.568.568 0 01-.569.57H.656a.568.568 0 01-.569-.57v-.417c0 .315.254.568.57.568h11.352a.57.57 0 00.571-.568z" fill="#C6C1C1"/>
    <path d="M3.474 10.44h4.252l4.854-1.662V3.351l-9.106 7.09z" fill="#D3D3D3"/>
    <path d="M10.806 3.837H1.857v.556h8.95v-.556zm0 2.146H1.857v.555h8.95v-.555zm0 2.146H1.857v.556h8.95v-.556zm0 2.148H1.857v.556h8.95v-.556z" fill="#BDBDBE"/>
    <path d="M7.01 9.133a.316.316 0 01-.08.041.216.216 0 01-.06.022l-2.322.873-.702-.702.87-2.323c.007-.02.013-.042.022-.062a.415.415 0 01.044-.08l2.229 2.23z" fill="#FCD66F"/>
    <path d="M4.084 9.607l-.24-.24.87-2.323c.007-.02.013-.042.022-.062a.415.415 0 01.044-.08l.855.625-1.551 2.08z" fill="#FBD984"/>
    <path d="M7.011 9.133a.316.316 0 01-.081.041.216.216 0 01-.06.022l-2.322.873-.24-.24 2.08-1.554.623.858z" fill="#E6AC43"/>
    <path d="M6.385 8.277L4.307 9.831l-.833.61.61-.834L5.637 7.53l.748.748z" fill="#FCD66F"/>
    <path d="M3.474 10.44l1.072-.369-.703-.702-.37 1.072z" fill="#2E435A"/>
    <path d="M12.257 3.907L7.1 9.063a.424.424 0 01-.088.07.316.316 0 01-.08.041.53.53 0 01-.7-.678.35.35 0 01.05-.098.439.439 0 01.07-.088l5.156-5.156.748.753z" fill="#324A5E"/>
    <path d="M5.6 7.564l5.158-5.158.75.75-5.158 5.16a.53.53 0 11-.75-.75z" fill="#445B69"/>
    <path d="M10.758 2.406L5.6 7.564a.528.528 0 01-.884-.518c.007-.02.013-.042.022-.061a.416.416 0 01.044-.081.333.333 0 01.07-.088l5.156-5.158.75.748z" fill="#445B69"/>
    <path d="M10.79 2.441L5.48 7.753a.541.541 0 01.12-.189l5.158-5.158.033.035zM6.232 8.499l5.31-5.31-.034-.032L6.35 8.315l-.118.184z" fill="#687D87"/>
    <path d="M12.19 2.54l-.65.65.717.716.65-.65-.717-.716z" fill="#DEDEDF"/>
    <path d="M11.44 1.793l-.649.65.716.715.65-.65-.716-.715z" fill="#E5E5E5"/>
    <path d="M10.657 1.007l-.65.65.75.75.65-.65-.75-.75z" fill="#EFF3F5"/>
    <path d="M11.407 1.758l-.65.65.034.034.65-.65-.034-.034zm.751.749l-.65.65.033.032.65-.65-.033-.032z" fill="#DEDEDF"/>
    <path d="M13.818 2.345l-.912.912-.717-.717 1.142-1.142.487.488a.325.325 0 010 .46z" fill="#A72A45"/>
    <path d="M12.582.652L11.44 1.794l.717.716 1.141-1.142-.716-.716z" fill="#D1395D"/>
    <path d="M12.582.65l-1.141 1.142-.784-.784.913-.912a.325.325 0 01.46 0l.553.554zm.716.715l-1.142 1.142.033.032 1.141-1.141-.032-.033z" fill="#DF4666"/>
    <path d="M12.547.616l-1.141 1.141.034.034L12.58.65l-.034-.034z" fill="#A72A45"/>
    <path d="M13.298 1.365l-1.142 1.142.033.032 1.141-1.141-.032-.033z" fill="#621A21"/>
    <path d="M11.964 2.766l-.2.2.717.716.2-.2-.717-.716z" fill="#C6C1C1"/>
    <path d="M11.217 2.017l-.2.2.716.716.2-.2-.716-.716z" fill="#D3D3D3"/>
    <path d="M10.43 1.232l-.199.2.75.75.2-.2-.75-.75z" fill="#DEDEDF"/>
    <path d="M11.181 1.984l-.2.2.035.033.2-.2-.035-.033zm.751.749l-.2.2.033.032.2-.2-.033-.032z" fill="#BDBDBE"/>
    <path d="M11.407 1.758l-.65.65.034.034.65-.65-.034-.034z" fill="#C6C1C1"/>
    <path d="M12.158 2.507l-.65.65.033.032.65-.65-.033-.032z" fill="#BDBDBE"/>
  </g>
  <defs>
    <clipPath id="d1EqpRdPKeOa">
      <path fill="#fff" d="M0 0h14v14H0z"/>
    </clipPath>
  </defs>
</svg>
