<svg xmlns="http://www.w3.org/2000/svg" fill="none" viewBox="0 0 56 40">
  <path d="M55.385 33.846A6.154 6.154 0 0149.23 40H6.154A6.154 6.154 0 010 33.846V6.154A6.154 6.154 0 016.154 0H49.23a6.154 6.154 0 016.154 6.154v27.692z" fill="#DE2910"/>
  <path d="M17.133 6.118l1.132.548.906-.87-.17 1.245 1.107.594-1.237.222-.221 1.237-.594-1.108-1.247.17.871-.905-.547-1.133zm7.177 4.525l-.548 1.13.87.909-1.244-.173-.594 1.11-.221-1.24-1.239-.22 1.11-.594-.173-1.245.908.87 1.13-.547zm-1.473 5.814l.413 1.188 1.256.026-1.001.758.364 1.205-1.032-.719-1.032.719.363-1.205-1.002-.758 1.257-.026.414-1.188zm-5.704 5.046l1.132.548.906-.871-.17 1.246 1.107.594-1.237.221-.221 1.237-.594-1.107-1.247.17.871-.906-.547-1.132zM10.77 9.155l1.429 4.11 4.347.089-3.466 2.628 1.26 4.163-3.57-2.485-3.571 2.485 1.26-4.163-3.466-2.628 4.347-.09 1.43-4.109z" fill="#FFDE02"/>
</svg>
