<svg xmlns="http://www.w3.org/2000/svg" fill="none" viewBox="0 0 84 62">
  <path d="M84 52.462C84 57.729 79.821 62 74.667 62H9.333C4.18 62 0 57.73 0 52.462V9.538C0 4.271 4.179 0 9.333 0h65.334C79.82 0 84 4.27 84 9.538v42.924z" fill="#DE2910"/>
  <path d="M25.984 9.483l1.717.85 1.374-1.35-.259 1.931 1.68.92-1.876.344-.336 1.917-.9-1.717-1.89.265 1.32-1.405-.83-1.755zm10.885 7.014l-.831 1.752 1.32 1.407-1.887-.267-.9 1.72-.337-1.92-1.878-.343 1.682-.921-.261-1.93 1.377 1.35 1.715-.848zm-2.233 9.011l.625 1.841 1.906.04-1.519 1.176.553 1.867-1.565-1.113-1.566 1.113.55-1.867-1.518-1.175 1.906-.041.628-1.84zm-8.652 7.822l1.717.849 1.374-1.35-.259 1.931 1.68.92-1.876.344-.336 1.917-.9-1.717-1.89.265 1.32-1.404-.83-1.755zm-9.651-19.14l2.168 6.37 6.594.138-5.257 4.073 1.91 6.453-5.415-3.851-5.416 3.851 1.911-6.453-5.257-4.073 6.594-.138 2.168-6.37z" fill="#FFDE02"/>
</svg>
