<svg xmlns="http://www.w3.org/2000/svg" fill="none" viewBox="0 0 22 16">
  <path d="M0 13.539A2.453 2.453 0 002.444 16h17.112A2.453 2.453 0 0022 13.539v-2.462H0v2.462z" fill="#138808"/>
  <path d="M0 4.923h22v6.154H0V4.923z" fill="#EEE"/>
  <path d="M22 4.923V2.462A2.453 2.453 0 0019.556 0H2.444A2.453 2.453 0 000 2.462v2.461h22z" fill="#F93"/>
  <path d="M11 10.461A2.453 2.453 0 0013.445 8 2.453 2.453 0 0011 5.538 2.453 2.453 0 008.556 8 2.453 2.453 0 0011 10.461z" fill="navy"/>
  <path d="M11 9.846A1.84 1.84 0 0012.834 8 1.84 1.84 0 0011 6.154 1.84 1.84 0 009.167 8c0 1.02.82 1.846 1.833 1.846z" fill="#EEE"/>
  <path d="M11 6.154l.09 1.393.611-1.252-.446 1.321 1.041-.922-.914 1.05 1.312-.45-1.244.616 1.384.09-1.384.09 1.244.616-1.312-.45.915 1.05-1.042-.922.446 1.321-.612-1.252L11 9.846l-.089-1.393-.612 1.252.447-1.321-1.042.921.915-1.048-1.312.449 1.243-.616L9.168 8l1.383-.09-1.243-.616 1.312.45-.915-1.05 1.041.922-.446-1.321.612 1.252.09-1.393z" fill="#6666B3"/>
  <path d="M11 8.615A.613.613 0 0011.613 8 .613.613 0 0011 7.385a.613.613 0 00-.61.615c0 .34.273.615.61.615z" fill="navy"/>
</svg>
