<svg xmlns="http://www.w3.org/2000/svg" fill="none" viewBox="0 0 200 167">
  <g opacity=".4">
    <path d="M11.111 27.778C.001 27.778.001 38.89.001 38.89v116.667s0 11.111 11.11 11.111H188.89C200 166.667 200 155.556 200 155.556V38.889s0-11.11-11.111-11.11H11.111z" fill="#5C913B"/>
    <path d="M11.111 0C0 0 0 11.111 0 11.111v111.111s0 11.111 11.111 11.111H188.89c11.11 0 11.11-11.111 11.11-11.111V11.112S200 0 188.889 0H11.111z" fill="#A7D28B"/>
    <path d="M138.889 102.778c19.944 0 36.111-16.168 36.111-36.111 0-19.944-16.167-36.111-36.111-36.111-19.943 0-36.111 16.167-36.111 36.11 0 19.944 16.168 36.112 36.111 36.112z" fill="#77B255"/>
    <path d="M183.333 125H16.667c-4.595 0-8.334-3.739-8.334-8.334v-100c0-4.594 3.74-8.333 8.334-8.333h166.666c4.595 0 8.334 3.74 8.334 8.333v100c0 4.595-3.739 8.334-8.334 8.334zM16.667 13.889a2.782 2.782 0 00-2.778 2.777v100a2.786 2.786 0 002.778 2.778h166.666a2.786 2.786 0 002.778-2.778v-100a2.782 2.782 0 00-2.778-2.777H16.667z" fill="#5C913B"/>
    <path d="M77.778 0h44.444v133.678H77.778V0z" fill="#FFE8B6"/>
    <path d="M77.778 133.333h44.444v33.334H77.778v-33.334z" fill="#FFAC33"/>
    <path d="M65.614 77.905c0-16.55-30.517-15.472-30.517-25.467 0-4.839 4.628-7.2 9.995-7.2 9.027 0 10.633 5.8 14.722 5.8 2.894 0 4.289-1.822 4.289-3.866 0-4.756-7.2-8.345-14.106-9.59V33a5.176 5.176 0 00-5.178-5.178A5.18 5.18 0 0039.641 33v4.74c-7.522 1.721-14.005 6.944-14.005 15.45 0 15.9 30.517 15.255 30.517 26.432 0 3.862-4.19 7.728-11.067 7.728-10.317 0-13.756-6.983-17.939-6.983-2.044 0-3.867 1.717-3.867 4.305 0 4.117 6.89 9.062 16.373 10.45l-.006.023v5.189a5.184 5.184 0 005.183 5.177 5.184 5.184 0 005.173-5.177v-5.19c0-.055-.028-.105-.034-.155 8.528-1.594 15.645-7.144 15.645-17.083z" fill="#5C913B"/>
  </g>
</svg>
