<svg xmlns="http://www.w3.org/2000/svg" fill="none" viewBox="0 0 24 32">
  <path d="M.889 13.333h21.333v1.778H.89v-1.778zm13.333 13.334c0 1.962-.704 3.555-2.666 3.555-1.964 0-2.667-1.593-2.667-3.555 0-1.963.703-1.778 2.667-1.778 1.962 0 2.666-.185 2.666 1.778z" fill="#63521C"/>
  <path d="M11.556 27.556c-5.891 0-8.89 1.193-8.89 2.666V32h17.778v-1.778c0-1.473-2.998-2.666-8.888-2.666z" fill="#D9C341"/>
  <path d="M11.556 0a8 8 0 00-8 8v6.222h16V8a8 8 0 00-8-8z" fill="#757574"/>
  <path d="M3.556 13.389v1.722a8 8 0 008 8 8 8 0 008-8v-1.723h-16z" fill="#D9C341"/>
  <path d="M22.222 12.444a.889.889 0 00-.889.89v1.777c0 5.4-4.377 9.778-9.777 9.778-5.4 0-9.778-4.379-9.778-9.778v-1.778a.89.89 0 00-1.778 0v1.778c0 6.382 5.173 11.556 11.556 11.556 6.382 0 11.555-5.174 11.555-11.556v-1.778a.889.889 0 00-.889-.889z" fill="#D9C341"/>
</svg>
