<svg xmlns="http://www.w3.org/2000/svg" fill="none" viewBox="0 0 187 165">
  <g opacity=".4">
    <path d="M66.695 149.286C65.25 160.857 54.695 165 43.124 165c-11.571 0-19.78-9.381-18.334-20.952l5.239-47.143c1.445-11.571 12-20.953 23.571-20.953 11.571 0 33.88 0 18.334 20.953-15.547 20.952-5.239 52.381-5.239 52.381z" fill="#BE1931"/>
    <path d="M186.738 65.477c0 36.153-8.088 65.476-18.072 65.476-9.978 0-107.12-29.323-107.12-65.477C61.547 29.319 158.689 0 168.667 0c9.984 0 18.072 29.318 18.072 65.477z" fill="#CCD6DD"/>
    <path d="M168.667 130.954c9.981 0 18.072-29.315 18.072-65.477 0-36.161-8.091-65.476-18.072-65.476-9.98 0-18.071 29.315-18.071 65.477 0 36.161 8.091 65.476 18.071 65.476z" fill="#66757F"/>
    <path d="M92.977 102.143l-73.334-5.238c-26.19 0-26.19-62.858 0-62.858l73.334-5.238c-15.715 15.714-15.715 57.62 0 73.334z" fill="#DD2E44"/>
    <path d="M163.168 88.252c4.34 0 7.858-10.197 7.858-22.775 0-12.579-3.518-22.776-7.858-22.776-4.339 0-7.857 10.197-7.857 22.776 0 12.578 3.518 22.775 7.857 22.775z" fill="#99AAB5"/>
  </g>
</svg>
