<svg xmlns="http://www.w3.org/2000/svg" fill="none" viewBox="0 0 84 62">
  <path d="M0 52.462C0 57.729 4.179 62 9.333 62h65.334C79.82 62 84 57.73 84 52.462v-9.539H0v9.538z" fill="#138808"/>
  <path d="M0 19.077h84v23.846H0V19.077z" fill="#EEE"/>
  <path d="M84 19.077V9.538C84 4.271 79.82 0 74.666 0H9.334C4.18 0 0 4.27 0 9.538v9.539h84z" fill="#F93"/>
  <path d="M42.001 40.538c5.155 0 9.334-4.27 9.334-9.538 0-5.268-4.18-9.538-9.334-9.538s-9.333 4.27-9.333 9.538c0 5.268 4.179 9.538 9.333 9.538z" fill="navy"/>
  <path d="M42 38.154c3.866 0 7-3.203 7-7.154 0-3.95-3.134-7.154-7-7.154S35 27.05 35 31s3.134 7.154 7 7.154z" fill="#EEE"/>
  <path d="M42 23.846l.34 5.399 2.336-4.853-1.703 5.12 3.976-3.572-3.493 4.066 5.01-1.744-4.749 2.39L49 31l-5.283.348 4.749 2.387-5.01-1.74 3.493 4.063-3.976-3.57 1.703 5.12-2.335-4.853L42 38.154l-.34-5.399-2.339 4.853 1.706-5.12-3.978 3.57 3.495-4.064-5.01 1.741 4.749-2.387L35 31l5.283-.348-4.749-2.39 5.01 1.744-3.495-4.066 3.978 3.572-1.706-5.12 2.338 4.853.341-5.399z" fill="#6666B3"/>
  <path d="M42 33.385c1.289 0 2.334-1.068 2.334-2.385 0-1.317-1.045-2.385-2.334-2.385-1.288 0-2.333 1.068-2.333 2.385 0 1.317 1.045 2.385 2.333 2.385z" fill="navy"/>
</svg>
