<svg xmlns="http://www.w3.org/2000/svg" fill="none" viewBox="0 0 26 36">
  <path d="M1 15h24v2H1v-2zm15 15c0 2.208-.792 4-3 4-2.21 0-3-1.792-3-4s.79-2 3-2c2.208 0 3-.208 3 2z" fill="#63521C"/>
  <path d="M13 31c-6.627 0-10 1.343-10 3v2h20v-2c0-1.657-3.373-3-10-3z" fill="#D9C341"/>
  <path d="M13 0a9 9 0 00-9 9v7h18V9a9 9 0 00-9-9z" fill="#757574"/>
  <path d="M4 15.062V17a9 9 0 009 9 9 9 0 009-9v-1.938H4z" fill="#D9C341"/>
  <path d="M25 14a1 1 0 00-1 1v2c0 6.074-4.925 11-11 11S2 23.074 2 17v-2a1 1 0 00-2 0v2c0 7.18 5.82 13 13 13s13-5.82 13-13v-2a1 1 0 00-1-1z" fill="#D9C341"/>
</svg>
