<svg xmlns="http://www.w3.org/2000/svg" fill="none" viewBox="0 0 64 56">
  <g opacity=".4">
    <path d="M22.636 50.667c-.49 3.927-4.073 5.333-8 5.333-3.927 0-6.713-3.184-6.222-7.111l1.778-16c.49-3.927 4.073-7.111 8-7.111 3.927 0 11.498 0 6.222 7.11-5.276 7.112-1.778 17.779-1.778 17.779z" fill="#BE1931"/>
    <path d="M63.377 22.222c0 12.27-2.745 22.222-6.133 22.222-3.387 0-36.355-9.952-36.355-22.222C20.889 9.95 53.857 0 57.244 0c3.389 0 6.133 9.95 6.133 22.222z" fill="#CCD6DD"/>
    <path d="M57.244 44.444c3.388 0 6.134-9.949 6.134-22.222C63.378 9.95 60.632 0 57.244 0c-3.387 0-6.133 9.95-6.133 22.222 0 12.273 2.746 22.222 6.133 22.222z" fill="#66757F"/>
    <path d="M31.555 34.666L6.667 32.89c-8.89 0-8.89-21.334 0-21.334l24.888-1.778c-5.333 5.334-5.333 19.556 0 24.89z" fill="#DD2E44"/>
    <path d="M55.378 29.952c1.473 0 2.667-3.46 2.667-7.73 0-4.269-1.194-7.73-2.667-7.73-1.473 0-2.667 3.461-2.667 7.73 0 4.27 1.194 7.73 2.667 7.73z" fill="#99AAB5"/>
  </g>
</svg>
