<svg xmlns="http://www.w3.org/2000/svg" fill="none" viewBox="0 0 46 64">
  <path d="M1.76 26.666h42.217v3.556H1.76v-3.556zm26.385 26.667c0 3.925-1.393 7.111-5.277 7.111-3.886 0-5.277-3.186-5.277-7.111s1.391-3.556 5.277-3.556c3.884 0 5.277-.37 5.277 3.556z" fill="#63521C"/>
  <path d="M22.868 55.111c-11.657 0-17.59 2.388-17.59 5.334V64h35.18v-3.555c0-2.946-5.932-5.334-17.59-5.334z" fill="#D9C341"/>
  <path d="M22.868 0C14.124 0 7.036 7.163 7.036 16v12.444H38.7V16c0-8.837-7.087-16-15.832-16z" fill="#757574"/>
  <path d="M7.036 26.777v3.445c0 8.837 7.088 16 15.832 16 8.745 0 15.832-7.163 15.832-16v-3.445H7.036z" fill="#D9C341"/>
  <path d="M43.977 24.889c-.973 0-1.759.796-1.759 1.777v3.556c0 10.798-8.663 19.556-19.35 19.556-10.686 0-19.35-8.758-19.35-19.556v-3.556A1.77 1.77 0 001.76 24.89 1.77 1.77 0 000 26.666v3.556c0 12.764 10.238 23.111 22.868 23.111 12.63 0 22.868-10.347 22.868-23.111v-3.556c0-.98-.786-1.777-1.759-1.777z" fill="#D9C341"/>
</svg>
