<svg xmlns="http://www.w3.org/2000/svg" fill="none" viewBox="0 0 48 48">
  <path d="M44.25 39.465v7.785H3.75v-7.785a8.986 8.986 0 017.05-8.775L24 27.75l13.2 2.94a8.986 8.986 0 017.05 8.775z" fill="#FFE33B"/>
  <path d="M37.2 30.69L24 27.75l-13.2 2.94a8.985 8.985 0 00-7.05 8.775v1.5a8.986 8.986 0 017.05-8.775L24 29.25l13.2 2.94a8.986 8.986 0 017.05 8.775v-1.5a8.986 8.986 0 00-7.05-8.775z" fill="#998C3D"/>
  <path d="M36 41.25v6h-1.5v-6a.75.75 0 111.5 0z" fill="#998C3D"/>
  <path d="M28.5 24.75v3a4.5 4.5 0 11-9 0v-3h9z" fill="#FFDAA7"/>
  <path d="M12 47.25v-6a.75.75 0 111.5 0v6H12z" fill="#998C3D"/>
  <path d="M33.146 8.774v9.33A9.147 9.147 0 0124 27.25a9.146 9.146 0 01-9.146-9.146v-7.83l18.292-1.5z" fill="#FFDAA7"/>
  <path d="M28.5 24.75v2.82a9.138 9.138 0 01-9 0v-2.82h9z" fill="#FDC475"/>
  <path d="M33.146 8.774v9.33A9.147 9.147 0 0124 27.25a9.146 9.146 0 01-9.146-9.146v-7.83l18.292-1.5z" fill="#FFDAA7"/>
  <path d="M14.854 16.274l1.029-5.297c.9.426 1.859.71 2.845.843 2.725.36 5.64-.918 8.893-1.355a5.82 5.82 0 013.589-.035c.477.247.891.6 1.21 1.034.485.733.738 1.595.727 2.473v2.337a6.53 6.53 0 001.21-1.547 6.93 6.93 0 00.801-3.923A7.93 7.93 0 0033.75 6.75a8.035 8.035 0 00-4.5-3c-2.168-.499-4.286.086-7.134.871a18.824 18.824 0 01-3.253.588 5.833 5.833 0 01-1.613.041c-1.933-.413-2.78-3.585-3-4.5a6.344 6.344 0 00-2.504 5.408 5.241 5.241 0 001.317 2.723 10.192 10.192 0 001.79 7.393z" fill="#58565D"/>
  <path d="M33.146 15.438v-.002.001zm0-1.5a4.378 4.378 0 00-.727-2.474 3.498 3.498 0 00-1.21-1.034 5.82 5.82 0 00-3.589.035c-3.252.437-6.168 1.716-8.892 1.355a9.676 9.676 0 01-2.845-.843l-1.03 5.298c.344-1.766.687-2.032 1.03-3.798a9.66 9.66 0 002.845.843c2.724.361 5.64-.918 8.892-1.355a5.82 5.82 0 013.59-.035c.477.247.89.6 1.21 1.034.484.732.738 1.594.726 2.472v-.252c0-1.235.002-1.219 0-1.246z" fill="#FDC475"/>
</svg>
