<svg xmlns="http://www.w3.org/2000/svg" fill="none" viewBox="0 0 48 45">
  <path d="M38.826 15.612c0-.225-.006-.448-.016-.67V2.251l-3.508 3.507A15.627 15.627 0 0023.17 0c-5.092 0-9.615 2.43-12.474 6.194l5.75 5.81a7.619 7.619 0 012.33-2.613c1.004-.783 2.426-1.424 4.394-1.424.237 0 .421.028.556.08a7.581 7.581 0 015.795 3.491l-4.07 4.07c5.156-.02 10.98-.031 13.375.003" fill="#1C3AA9"/>
  <path d="M23.078 0c-.224.001-.448.006-.67.017H9.717l3.508 3.508a15.627 15.627 0 00-5.76 12.132A15.63 15.63 0 0013.66 28.13l5.811-5.75a7.62 7.62 0 01-2.613-2.33c-.784-1.004-1.424-2.426-1.424-4.394 0-.238.027-.421.08-.556a7.581 7.581 0 013.49-5.796l4.071 4.07c-.02-5.155-.032-10.98.003-13.374" fill="#4285F4"/>
  <path d="M7.467 15.656c0 .225.006.449.016.671v12.69l3.508-3.508a15.627 15.627 0 0012.132 5.76 15.63 15.63 0 0012.474-6.194l-5.75-5.811a7.618 7.618 0 01-2.33 2.613c-1.004.784-2.426 1.424-4.394 1.424-.238 0-.421-.028-.556-.08a7.581 7.581 0 01-5.796-3.49l4.071-4.071c-5.156.02-10.98.032-13.375-.003" fill="#ABABAB"/>
  <path d="M10.109 37.332c-.382 0-.724.072-1.026.217a2.127 2.127 0 00-.77.606 2.84 2.84 0 00-.478.957 4.446 4.446 0 00-.163 1.247v1.327c0 .464.055.881.163 1.253.112.371.27.688.474.951.203.263.45.465.74.607.289.141.614.212.976.212.371 0 .697-.054.976-.163a1.86 1.86 0 00.71-.468 2.12 2.12 0 00.44-.75c.104-.293.167-.625.187-.996h-.913c-.023.286-.062.53-.118.735-.056.2-.138.366-.247.498a.94.94 0 01-.414.286 1.889 1.889 0 01-.621.089 1.24 1.24 0 01-.671-.173 1.353 1.353 0 01-.449-.483 2.44 2.44 0 01-.246-.715 4.966 4.966 0 01-.074-.883V40.35c0-.339.03-.646.089-.923.062-.276.156-.51.28-.705.126-.194.283-.343.474-.449.19-.108.418-.162.68-.162.22 0 .41.033.568.098a.928.928 0 01.394.296c.105.132.186.3.242.503.056.204.094.447.113.73h.912a3.558 3.558 0 00-.182-1.03 2.154 2.154 0 00-.439-.755 1.81 1.81 0 00-.685-.464 2.497 2.497 0 00-.923-.157zm22.27 0a2.35 2.35 0 00-1.026.217 2.126 2.126 0 00-.77.606 2.84 2.84 0 00-.478.957 4.446 4.446 0 00-.163 1.247v1.327c0 .464.055.881.163 1.253.112.371.27.688.474.951.203.263.45.465.74.607.289.141.614.212.976.212.371 0 .697-.054.976-.163a1.86 1.86 0 00.71-.468 2.12 2.12 0 00.44-.75c.104-.293.167-.625.187-.996h-.913c-.023.286-.062.53-.118.735-.056.2-.138.366-.247.498a.94.94 0 01-.414.286 1.885 1.885 0 01-.621.089 1.24 1.24 0 01-.67-.173 1.353 1.353 0 01-.45-.483 2.44 2.44 0 01-.246-.715 4.968 4.968 0 01-.074-.883V40.35c0-.339.03-.646.089-.923.062-.276.156-.51.28-.705.126-.194.284-.343.474-.449.19-.108.418-.162.68-.162.22 0 .41.033.568.098a.928.928 0 01.394.296c.105.132.186.3.242.503.056.204.094.447.113.73h.913a3.562 3.562 0 00-.183-1.03 2.139 2.139 0 00-.439-.755 1.811 1.811 0 00-.685-.464 2.498 2.498 0 00-.922-.157zm-17.072.098l-2.313 7.18h.927l.557-1.874h2.426l.567 1.874h.927l-2.317-7.18h-.774zm4.068 0v7.18h.902V41.8h1.386a2.7 2.7 0 00.917-.144 1.74 1.74 0 001.085-1.105 2.8 2.8 0 00.143-.926c0-.32-.048-.612-.143-.878a1.91 1.91 0 00-.41-.696 1.826 1.826 0 00-.675-.458 2.416 2.416 0 00-.917-.163h-2.288zm5.123 0v.78h1.884v6.4h.902v-6.4h1.89v-.78h-4.676zm11.328 0v7.18h.902v-3.319h2.89v3.32h.907v-7.18h-.907v3.086h-2.89V37.43h-.902zm8.121 0l-2.312 7.18h.927l.557-1.874h2.426l.567 1.874h.927l-2.317-7.18h-.775zm-23.67.78h1.386c.22 0 .407.039.562.118.158.079.286.184.384.315.102.132.176.285.222.459.05.17.074.349.074.533 0 .203-.024.39-.074.562-.046.167-.12.314-.221.439a1 1 0 01-.385.286 1.376 1.376 0 01-.562.103h-1.386V38.21zm-4.586.483l.981 3.264h-1.957l.976-3.264zm28.641 0l.981 3.264h-1.957l.976-3.264zm-42.478.483a.997.997 0 00-.587.173 1.38 1.38 0 00-.404.468l-.015-.542H0v5.335h.873v-3.817a1.26 1.26 0 01.35-.537.874.874 0 01.587-.197c.075 0 .143.003.202.01.06.003.123.01.192.024l-.005-.848a.302.302 0 00-.064-.02.978.978 0 00-.192-.04.463.463 0 00-.089-.01v.001zm2.934 0c-.253 0-.498.044-.734.133a1.606 1.606 0 00-.632.439c-.18.2-.327.464-.439.789-.111.322-.167.718-.167 1.188v.602c0 .408.047.761.143 1.06.095.3.232.548.41.745.18.194.399.339.655.434.256.095.544.143.863.143.23 0 .436-.023.616-.07a2.29 2.29 0 00.489-.177c.14-.075.263-.16.364-.256.102-.095.19-.194.262-.296l-.454-.552c-.072.089-.15.17-.232.246a1.614 1.614 0 01-.27.193 1.422 1.422 0 01-.326.123c-.119.03-.252.044-.4.044-.404 0-.715-.13-.932-.39-.213-.259-.32-.675-.32-1.247v-.123h2.978v-.508c0-.408-.034-.768-.103-1.08a2.157 2.157 0 00-.33-.79 1.432 1.432 0 00-.583-.482 1.997 1.997 0 00-.858-.168zm0 .75a.97.97 0 01.474.103c.125.07.223.166.296.291.075.125.13.275.162.449.037.17.06.36.07.567v.118H3.688c.013-.299.049-.547.108-.744.06-.198.137-.354.232-.469a.789.789 0 01.34-.246c.128-.046.268-.07.42-.07z" fill="#A6A6A6"/>
</svg>
