<svg xmlns="http://www.w3.org/2000/svg" fill="none" viewBox="0 0 198 48">
  <path fill-rule="evenodd" clip-rule="evenodd" d="M186.255 0H11.152a396.286 396.286 0 00-1.313.002 51.721 51.721 0 00-.862.012l-.236.003C7.809.041 7.076.1 6.378.225A7.707 7.707 0 004.18.95 7.431 7.431 0 00.95 4.18c-.35.683-.583 1.4-.722 2.2-.127.694-.187 1.422-.211 2.358a31.71 31.71 0 00-.01.548l-.003.196L0 9.833v27.733l.005.358a32.63 32.63 0 00.013.745c.024.935.084 1.663.21 2.358.14.802.375 1.521.723 2.2a7.157 7.157 0 001.361 1.863 7.237 7.237 0 001.868 1.359c.682.35 1.396.583 2.2.728.687.124 1.403.181 2.36.208.385.008.745.013 1.098.013a162.22 162.22 0 001.314.002h175.103a517.96 517.96 0 001.302-.002c.353 0 .725-.005 1.099-.013.962-.027 1.675-.084 2.357-.208a7.869 7.869 0 002.209-.729 7.24 7.24 0 001.868-1.36 7.375 7.375 0 001.362-1.86 7.63 7.63 0 00.716-2.204c.126-.675.183-1.356.218-2.351l.004-.553.001-.556.004-.262a68.7 68.7 0 00.005-1.044V11.143c0-.655-.002-.944-.009-1.31l-.001-.551-.004-.543c-.035-1.003-.092-1.684-.219-2.363a7.638 7.638 0 00-.714-2.197 7.428 7.428 0 00-1.365-1.87A7.427 7.427 0 00193.223.95a7.835 7.835 0 00-2.21-.725c-.69-.125-1.421-.185-2.354-.208l-.211-.003a218.337 218.337 0 00-.893-.012 171.009 171.009 0 00-1.3-.002z" fill="#fff"/>
  <path fill-rule="evenodd" clip-rule="evenodd" d="M106.917 22.1a1.307 1.307 0 001.797-.461 1.323 1.323 0 00-.458-1.807c-5.204-3.106-13.438-3.398-18.39-1.887a1.32 1.32 0 00-.875 1.646 1.31 1.31 0 001.636.878c4.314-1.316 11.77-1.068 16.29 1.631zm-.148 3.998a1.103 1.103 0 00-.36-1.511c-4.328-2.675-10.659-3.428-15.752-1.874-.577.177-.903.79-.729 1.371.176.58.787.908 1.365.733 4.458-1.361 10.204-.686 13.972 1.643a1.09 1.09 0 001.504-.362zm-1.716 3.84a.882.882 0 00-.29-1.21c-3.696-2.27-8.278-2.799-13.619-1.571a.878.878 0 00-.657 1.052.873.873 0 001.046.661c4.881-1.121 9.026-.664 12.319 1.36a.87.87 0 001.201-.293zM98.623 9.6c7.744 0 14.022 6.313 14.022 14.1 0 7.788-6.278 14.1-14.022 14.1-7.745 0-14.023-6.312-14.023-14.1 0-7.787 6.278-14.1 14.023-14.1zm24.127 13.017c2.95.721 4.153 1.84 4.153 3.865 0 2.396-1.821 3.944-4.638 3.944-1.991 0-3.836-.712-5.336-2.059a.16.16 0 01-.016-.221l1.326-1.586a.156.156 0 01.108-.056.167.167 0 01.117.038c1.289 1.122 2.442 1.601 3.855 1.601 1.272 0 2.063-.553 2.063-1.444 0-.804-.391-1.253-2.708-1.79-2.722-.661-4.297-1.518-4.297-3.939 0-2.257 1.826-3.834 4.44-3.834 1.778 0 3.299.53 4.65 1.62a.16.16 0 01.03.216l-1.182 1.676a.158.158 0 01-.224.036c-1.135-.851-2.218-1.265-3.309-1.265-1.127 0-1.884.545-1.884 1.354 0 .856.431 1.263 2.852 1.844zm12.571 2.713c0-1.682-1.072-2.902-2.547-2.902-1.482 0-2.601 1.247-2.601 2.902s1.119 2.902 2.601 2.902c1.499 0 2.547-1.192 2.547-2.902zm-2.045-5.114c2.268 0 4.565 1.756 4.565 5.114 0 3.357-2.297 5.113-4.565 5.113-1.221 0-2.223-.455-3.049-1.387v3.911a.16.16 0 01-.158.16h-2.168a.16.16 0 01-.158-.16V20.575a.16.16 0 01.158-.16h2.168a.16.16 0 01.158.16v1.115c.826-.99 1.828-1.474 3.049-1.474zm10.452 8.034c1.569 0 2.708-1.212 2.708-2.884 0-1.665-1.18-2.92-2.744-2.92-1.558 0-2.689 1.212-2.689 2.884 0 1.665 1.171 2.92 2.725 2.92zm0-8.034c2.912 0 5.192 2.246 5.192 5.114 0 2.878-2.296 5.132-5.228 5.132-2.901 0-5.175-2.238-5.175-5.096 0-2.888 2.289-5.15 5.211-5.15zm11.432.2a.16.16 0 01.158.159v1.873a.16.16 0 01-.158.16h-2.386v4.506c0 .712.311 1.03 1.006 1.03.451 0 .855-.098 1.273-.31a.157.157 0 01.154.008.16.16 0 01.075.136v1.784c0 .056-.03.11-.08.138-.608.347-1.253.508-2.031.508-1.912 0-2.882-.993-2.882-2.952v-4.848h-1.042a.16.16 0 01-.158-.16v-1.873a.16.16 0 01.158-.16h1.042v-2.453a.16.16 0 01.159-.16h2.168a.16.16 0 01.158.16v2.453h2.386zm8.311.009h3.704a.16.16 0 01.148.102l2.532 6.645 2.312-6.64a.158.158 0 01.15-.107h2.257a.158.158 0 01.147.217l-3.761 9.773c-.78 2.017-1.665 2.767-3.266 2.767-.855 0-1.548-.179-2.315-.596a.16.16 0 01-.068-.207l.735-1.62a.159.159 0 01.093-.087.164.164 0 01.127.012c.411.226.813.341 1.195.341.473 0 .819-.156 1.171-.942l-3.101-7.475h-2.024v7.477a.16.16 0 01-.159.16h-2.168a.16.16 0 01-.158-.16v-7.477h-1.041a.16.16 0 01-.159-.16v-1.883a.16.16 0 01.159-.16h1.041v-.46c0-2.145 1.059-3.278 3.061-3.278a5.94 5.94 0 011.802.26.16.16 0 01.112.153v1.837a.159.159 0 01-.209.152c-.406-.137-.769-.227-1.221-.227-.758 0-1.096.395-1.096 1.281v.302zm-4.818-.01a.16.16 0 01.159.16v9.51a.16.16 0 01-.159.16h-2.168a.16.16 0 01-.159-.16v-9.51a.16.16 0 01.159-.16h2.168zm-1.073-4.33c.858 0 1.555.699 1.555 1.563a1.56 1.56 0 01-1.555 1.563 1.56 1.56 0 01-1.556-1.563 1.56 1.56 0 011.556-1.563zm19.08 5.276h-.397v.51h.397c.199 0 .317-.098.317-.255 0-.166-.118-.255-.317-.255zm.258.727l.431.607h-.363l-.389-.557h-.334v.557h-.304v-1.61h.714c.372 0 .617.191.617.514 0 .264-.152.425-.372.489zm-.338-1.539c-.782 0-1.373.625-1.373 1.39 0 .764.587 1.38 1.365 1.38.781 0 1.373-.624 1.373-1.39 0-.764-.588-1.38-1.365-1.38zm-.008 2.924a1.524 1.524 0 01-1.526-1.534c0-.842.676-1.543 1.534-1.543s1.525.693 1.525 1.534c0 .841-.675 1.543-1.533 1.543z" fill="#1ED760"/>
  <path fill-rule="evenodd" clip-rule="evenodd" d="M23.23 27.185H18.6v-7.232h1.408v5.885h3.223v1.347zm3.358 0H25.16v-7.232h1.428v7.232zm7.477-5.508l-1.264.387c-.072-.397-.398-1.02-1.316-1.02-.683 0-1.132.439-1.132.918 0 .398.255.714.785.816l1.01.194c1.316.255 2.02 1.112 2.02 2.132 0 1.112-.929 2.234-2.612 2.234-1.917 0-2.764-1.234-2.876-2.265l1.305-.346c.062.714.562 1.356 1.582 1.356.754 0 1.172-.377 1.172-.887 0-.418-.316-.745-.877-.857l-1.01-.204c-1.152-.235-1.897-.98-1.897-2.07 0-1.286 1.153-2.265 2.52-2.265 1.754 0 2.427 1.06 2.59 1.877zm7.621-.388h-2.285v5.896h-1.418v-5.896H35.7v-1.336h5.987v1.336zm6.458 5.896h-4.53v-7.232h4.53v1.326h-3.121v1.652h2.825v1.255h-2.825v1.673h3.12v1.326zm8.457 0h-1.48l-3.284-5.13v5.13H50.43v-7.232h1.754l3.009 4.784v-4.784h1.408v7.232zm6.826-3.621c0 1.632 1.142 2.407 2.254 2.407 1.122 0 2.264-.775 2.264-2.407 0-1.632-1.142-2.407-2.264-2.407-1.112 0-2.254.775-2.254 2.407zm-1.459.01c0-2.336 1.754-3.774 3.713-3.774 1.968 0 3.723 1.438 3.723 3.774 0 2.326-1.755 3.764-3.723 3.764-1.959 0-3.713-1.438-3.713-3.764zm15.79 3.61H76.28l-3.285-5.13v5.13h-1.407v-7.231h1.754l3.01 4.784v-4.784h1.407v7.232z" fill="#000"/>
</svg>
