<svg xmlns="http://www.w3.org/2000/svg" fill="none" viewBox="0 0 48 48">
  <path d="M40.5 24a1.5 1.5 0 00-1.5-1.5H9A1.5 1.5 0 007.5 24a16.5 16.5 0 0015 16.5V45a1.5 1.5 0 003 0v-4.5a16.5 16.5 0 0015-16.5zM24 37.5a13.5 13.5 0 01-13.41-12h26.82A13.5 13.5 0 0124 37.5z" fill="#68818C"/>
  <path d="M39 22.5H24v3h13.41A13.5 13.5 0 0124 37.5v9a1.5 1.5 0 001.5-1.5v-4.5a16.5 16.5 0 0015-16.5 1.5 1.5 0 00-1.5-1.5z" fill="#485961"/>
  <path d="M24 1.5A10.5 10.5 0 0013.5 12v12a10.5 10.5 0 1021 0V12A10.5 10.5 0 0024 1.5z" fill="#FCF0A4"/>
  <path d="M34.5 12v12a8.322 8.322 0 01-.12 1.5 10.5 10.5 0 01-10.38 9v-33A10.5 10.5 0 0134.5 12z" fill="#D9C341"/>
  <path d="M27 12h-6a1.5 1.5 0 110-3h6a1.5 1.5 0 010 3zm0 7.5h-6a1.5 1.5 0 110-3h6a1.5 1.5 0 110 3zm0 7.5h-6a1.5 1.5 0 110-3h6a1.5 1.5 0 110 3z" fill="#696967"/>
</svg>
