<svg xmlns="http://www.w3.org/2000/svg" fill="none" viewBox="0 0 40 40">
  <path d="M33.75 20a1.25 1.25 0 00-1.25-1.25h-25A1.25 1.25 0 006.25 20a13.75 13.75 0 0012.5 13.75v3.75a1.25 1.25 0 102.5 0v-3.75A13.75 13.75 0 0033.75 20zM20 31.25a11.25 11.25 0 01-11.175-10h22.35A11.25 11.25 0 0120 31.25z" fill="#68818C"/>
  <path d="M32.5 18.75H20v2.5h11.175A11.25 11.25 0 0120 31.25v7.5a1.25 1.25 0 001.25-1.25v-3.75A13.75 13.75 0 0033.75 20a1.25 1.25 0 00-1.25-1.25z" fill="#485961"/>
  <path d="M20 1.25A8.75 8.75 0 0011.25 10v10a8.75 8.75 0 0017.5 0V10A8.75 8.75 0 0020 1.25z" fill="#FCF0A4"/>
  <path d="M28.75 10v10a6.89 6.89 0 01-.1 1.25 8.75 8.75 0 01-8.65 7.5V1.25A8.75 8.75 0 0128.75 10z" fill="#D9C341"/>
  <path d="M22.5 15h-5a1.25 1.25 0 010-2.5h5a1.25 1.25 0 010 2.5zm0 6.25h-5a1.25 1.25 0 010-2.5h5a1.25 1.25 0 010 2.5zm0 6.25h-5a1.25 1.25 0 010-2.5h5a1.25 1.25 0 010 2.5z" fill="#696967"/>
</svg>
