<svg xmlns="http://www.w3.org/2000/svg" fill="none" viewBox="0 0 36 36">
  <g clip-path="url(#q7p6fI-8FIma)">
    <path fill-rule="evenodd" clip-rule="evenodd" d="M25.515 3.757A3.758 3.758 0 0021.758 0h-7.515a3.758 3.758 0 00-3.758 3.758v15.03a3.757 3.757 0 003.758 3.712h7.515a3.758 3.758 0 003.757-3.758V3.758z" fill="#FCBF4C"/>
    <path d="M18 36a.934.934 0 01-.934-.934v-7.875h-2.812a8.46 8.46 0 01-8.46-8.403V12.52a.94.94 0 011.878 0v6.267a6.581 6.581 0 006.57 6.57h7.515a6.581 6.581 0 006.57-6.57V12.52a.94.94 0 011.88 0v6.267a8.46 8.46 0 01-8.45 8.448h-2.812v7.875A.933.933 0 0118 36z" fill="#F39C12"/>
  </g>
  <defs>
    <clipPath id="q7p6fI-8FIma">
      <path fill="#fff" d="M0 0h36v36H0z"/>
    </clipPath>
  </defs>
</svg>
