<svg xmlns="http://www.w3.org/2000/svg" fill="none" viewBox="0 0 16 16">
  <path d="M15.775 1.013v12.936c0 .848-.687 1.535-1.534 1.535H1.758c.848 0 1.535-.687 1.535-1.533V1.013c0-.275.222-.497.496-.497h11.49c.274 0 .496.222.496.497z" fill="#F2F0F0"/>
  <path opacity=".08" d="M15.775 1.012V13.95c0 .847-.686 1.535-1.535 1.535h-.766c.847 0 1.535-.688 1.535-1.535V1.012a.497.497 0 00-.496-.496h.766c.275 0 .496.222.496.496z" fill="#000"/>
  <path d="M14.683 4.138a.336.336 0 00-.336-.337h-4.072a.336.336 0 000 .673h4.072c.186 0 .336-.15.336-.336zm0 1.656a.336.336 0 00-.336-.336h-4.072a.336.336 0 000 .673h4.072c.186 0 .336-.15.336-.337zm0 1.657a.336.336 0 00-.336-.336h-4.072a.336.336 0 000 .672h4.072c.186 0 .336-.15.336-.336zm0 1.635a.336.336 0 00-.336-.336H4.72a.336.336 0 000 .672h9.626c.186 0 .336-.15.336-.336zM9.13 10.742v.001c0 .186-.15.337-.336.337H4.72a.336.336 0 110-.673h4.072c.186 0 .336.15.336.335zm0 1.657c0 .187-.15.337-.336.337H4.72a.336.336 0 01-.336-.336v-.001c0-.186.15-.336.336-.336h4.072c.186 0 .336.15.336.336zm0 1.657c0 .186-.15.337-.336.337H4.72a.336.336 0 010-.674h4.072c.186 0 .336.15.336.337z" fill="#E5E3E5"/>
  <path opacity=".08" d="M14.684 4.137c0 .186-.15.338-.338.338h-1a.337.337 0 000-.674h1c.187 0 .338.151.338.336zm0 1.658c0 .185-.15.336-.338.336h-1a.336.336 0 000-.674h1c.187 0 .338.15.338.338zm0 1.656c0 .185-.15.336-.338.336h-1a.336.336 0 000-.672h1c.187 0 .338.15.338.336zm0 1.634c0 .187-.15.338-.338.338h-1a.336.336 0 000-.674h1c.187 0 .338.151.338.336zm-5.556 1.658c0 .185-.15.336-.335.336h-1a.336.336 0 000-.674h1c.185 0 .335.151.335.338zm0 1.656v.002c0 .185-.15.335-.335.335h-1c.186 0 .336-.15.336-.335v-.002a.336.336 0 00-.336-.336h1c.185 0 .335.15.335.336zm0 1.656v.002c0 .185-.15.335-.335.335h-1c.186 0 .336-.15.336-.335v-.002a.336.336 0 00-.336-.336h1c.185 0 .335.15.335.336z" fill="#000"/>
  <path d="M8.51 3.783H4.721a.336.336 0 00-.336.337v3.313c0 .186.15.336.336.336h3.79c.185 0 .336-.15.336-.336V4.12a.336.336 0 00-.337-.337z" fill="#D9C341"/>
  <path opacity=".08" d="M8.847 4.119v3.313c0 .186-.15.338-.336.338h-.633a.337.337 0 00.335-.338V4.12a.336.336 0 00-.335-.336h.633c.185 0 .336.15.336.336z" fill="#000"/>
  <path d="M14.347 10.406h-3.79a.336.336 0 00-.335.336v3.314c0 .186.15.336.336.336h3.789c.186 0 .336-.15.336-.336v-3.313a.336.336 0 00-.336-.337z" fill="#D9C341"/>
  <path opacity=".08" d="M14.683 10.743v3.313c0 .186-.15.336-.337.336h-.687c.185 0 .336-.15.336-.335v-3.314a.336.336 0 00-.336-.336h.687c.187 0 .337.15.337.336z" fill="#000"/>
  <path d="M14.683 2.15a.541.541 0 00-.541-.542H4.926a.541.541 0 100 1.083h9.216a.541.541 0 00.541-.542z" fill="#F96464"/>
  <path opacity=".08" d="M14.684 2.149c0 .3-.244.542-.541.542h-1.536a.541.541 0 000-1.083h1.536c.297 0 .54.243.54.54z" fill="#000"/>
  <path d="M.225 4.44v9.457c0 .817.616 1.53 1.432 1.584a1.534 1.534 0 001.636-1.531V3.943H.72a.496.496 0 00-.496.497z" fill="#E5E3E5"/>
  <path opacity=".08" d="M3.294 3.944V13.95a1.534 1.534 0 01-1.928 1.482 1.534 1.534 0 001.137-1.482V3.944h.79z" fill="#000"/>
  <path opacity=".4" d="M11.14 11.33v.541a.251.251 0 11-.503 0v-.54a.251.251 0 01.503 0zM5.295 4.665v.54a.251.251 0 01-.503 0v-.54a.251.251 0 01.503 0z" fill="#fff"/>
</svg>
