<svg xmlns="http://www.w3.org/2000/svg" fill="none" viewBox="0 0 36 36">
  <path d="M35.494 2.278v29.107a3.453 3.453 0 01-3.453 3.453H3.956a3.45 3.45 0 003.452-3.449V2.278c0-.617.5-1.117 1.117-1.117h25.852c.617 0 1.117.5 1.117 1.117z" fill="#F2F0F0"/>
  <path opacity=".08" d="M35.495 2.277v29.108a3.454 3.454 0 01-3.455 3.454h-1.723a3.457 3.457 0 003.454-3.454V2.277c0-.618-.502-1.116-1.117-1.116h1.724c.618 0 1.117.498 1.117 1.116z" fill="#000"/>
  <path d="M33.037 9.31a.757.757 0 00-.757-.757h-9.16a.757.757 0 000 1.513h9.16a.757.757 0 00.757-.756zm0 3.727a.757.757 0 00-.757-.757h-9.16a.757.757 0 000 1.514h9.16a.757.757 0 00.757-.757zm0 3.728a.757.757 0 00-.757-.757h-9.16a.757.757 0 000 1.513h9.16a.757.757 0 00.757-.756zm0 3.678a.757.757 0 00-.757-.756H10.623a.757.757 0 000 1.513H32.28a.757.757 0 00.757-.757zM20.54 24.17v.002a.757.757 0 01-.756.757h-9.161a.757.757 0 01-.757-.757v-.002c0-.418.34-.757.757-.757h9.16c.419 0 .757.34.757.757zm0 3.727v.003a.757.757 0 01-.756.756h-9.161a.757.757 0 01-.757-.756v-.003c0-.418.34-.756.757-.756h9.16c.419 0 .757.338.757.756zm0 3.728v.002a.757.757 0 01-.756.756h-9.161a.757.757 0 01-.757-.756v-.002c0-.418.34-.757.757-.757h9.16c.419 0 .757.339.757.757z" fill="#E5E3E5"/>
  <path opacity=".08" d="M33.038 9.309a.76.76 0 01-.76.759H30.03a.76.76 0 00.756-.76.756.756 0 00-.756-.755h2.249c.42 0 .759.339.759.756zm0 3.73a.757.757 0 01-.76.755H30.03a.757.757 0 000-1.515h2.249c.42 0 .759.339.759.76zm0 3.725a.757.757 0 01-.76.756H30.03a.756.756 0 000-1.511h2.249c.42 0 .759.338.759.755zm0 3.678c0 .42-.339.759-.76.759H30.03a.757.757 0 000-1.515h2.249c.42 0 .759.339.759.756zm-12.5 3.73a.756.756 0 01-.755.755h-2.248a.757.757 0 000-1.515h2.248c.417 0 .756.339.756.76zm0 3.725v.004a.756.756 0 01-.755.756h-2.248a.756.756 0 00.756-.756v-.004a.756.756 0 00-.756-.755h2.248c.417 0 .756.338.756.755zm0 3.726v.004a.756.756 0 01-.755.756h-2.248a.756.756 0 00.756-.756v-.004a.756.756 0 00-.756-.755h2.248c.417 0 .756.338.756.755z" fill="#000"/>
  <path d="M19.148 8.512h-8.525a.757.757 0 00-.756.757v7.455c0 .418.338.757.756.757h8.525a.757.757 0 00.757-.757V9.27a.757.757 0 00-.757-.757z" fill="#D9C341"/>
  <path opacity=".08" d="M19.906 9.268v7.455a.76.76 0 01-.756.76h-1.425a.76.76 0 00.755-.76V9.268a.756.756 0 00-.755-.756h1.425c.417 0 .756.339.756.756z" fill="#000"/>
  <path d="M32.28 23.414h-8.525a.757.757 0 00-.757.757v7.455c0 .418.34.756.757.756h8.525a.757.757 0 00.757-.756V24.17a.757.757 0 00-.757-.757z" fill="#D9C341"/>
  <path opacity=".08" d="M33.038 24.172v7.455a.757.757 0 01-.76.756h-1.544a.756.756 0 00.755-.756v-7.455a.756.756 0 00-.755-.756h1.544c.421 0 .76.339.76.756z" fill="#000"/>
  <path d="M33.037 4.836c0-.673-.545-1.218-1.218-1.218H11.084a1.218 1.218 0 100 2.436H31.82c.673 0 1.218-.546 1.218-1.218z" fill="#F96464"/>
  <path opacity=".08" d="M33.038 4.834a1.22 1.22 0 01-1.217 1.221h-3.455a1.218 1.218 0 000-2.438h3.454c.67 0 1.218.547 1.218 1.217z" fill="#000"/>
  <path d="M.506 9.99v21.279c0 1.838 1.387 3.444 3.221 3.562a3.452 3.452 0 003.682-3.444V8.873H1.622c-.617 0-1.116.5-1.116 1.116z" fill="#E5E3E5"/>
  <path opacity=".08" d="M7.41 8.873v22.516a3.452 3.452 0 01-4.336 3.335 3.453 3.453 0 002.557-3.335V8.873h1.78z" fill="#000"/>
  <path opacity=".4" d="M25.065 25.493v1.217a.566.566 0 01-1.132 0v-1.217a.566.566 0 111.132 0zM11.913 10.496v1.217a.566.566 0 11-1.132 0v-1.217a.566.566 0 111.132 0z" fill="#fff"/>
</svg>
