<svg xmlns="http://www.w3.org/2000/svg" fill="none" viewBox="0 0 40 40">
  <path d="M36.49 12.095v16.568H3.51V12.094a2.343 2.343 0 012.343-2.343h28.294a2.343 2.343 0 012.344 2.344z" fill="#D9F0FF"/>
  <path d="M36.49 28.663v2.302a2.346 2.346 0 01-2.343 2.344H5.853a2.344 2.344 0 01-2.344-2.344v-2.302h32.982z" fill="#676E87"/>
  <path d="M24.608 39.414h-9.217a.664.664 0 01-.579-.987l1.09-1.947a4.086 4.086 0 00.349-3.171h7.498a4.095 4.095 0 00.349 3.172l.188.336.901 1.61a.663.663 0 01-.579.987z" fill="#595F74"/>
  <path d="M31.514 25.273H8.486a.586.586 0 110-1.171h23.028a.586.586 0 110 1.171z" fill="#8EA7EC"/>
  <path d="M19.09 26.18a1.493 1.493 0 100-2.986 1.493 1.493 0 000 2.986z" fill="#676E87"/>
  <path d="M24.286 36.817l-7.872-2.588a4.006 4.006 0 00-.163-.92h7.498a4.097 4.097 0 00.349 3.172l.188.336z" fill="#4A4F60"/>
  <path d="M28.193 9.75v7.566a.781.781 0 01-.781.782h-1.175a.779.779 0 01-.781-.782V9.751h2.737zm-2.738 0v7.491l-8.727-3.421V9.75h8.727zm-8.727 0v4.07h-3.573a1.172 1.172 0 01-1.172-1.172V9.75h4.745z" fill="#B3E0FF"/>
  <path d="M16.716 21.12h-1.669a.57.57 0 01-.557-.448l-1.504-6.853h2.738l1.547 6.6a.569.569 0 01-.555.701zM30.361 9.75v2.073a2.168 2.168 0 01-2.168 2.168V9.75h2.168z" fill="#B3E0FF"/>
  <path d="M26.24.586h-1.176a.781.781 0 00-.78.781v15.95c0 .43.349.78.78.78h1.176c.431 0 .781-.35.781-.78V1.366a.781.781 0 00-.781-.781z" fill="#8EA7EC"/>
  <path d="M26.24.586h-1.172a.781.781 0 01.781.781v15.95a.78.78 0 01-.78.78h1.17a.783.783 0 00.782-.78V1.366a.78.78 0 00-.781-.781z" fill="#6183E4"/>
  <path d="M24.283 17.242l-8.727-3.423V4.864l8.727-3.423v15.8z" fill="#FFE33B"/>
  <path d="M11.983 4.864h3.573v8.955h-3.573a1.172 1.172 0 01-1.172-1.171V6.035a1.172 1.172 0 011.172-1.171z" fill="#8EA7EC"/>
  <path d="M15.556 4.863h-1.172v8.956h1.172V4.863z" fill="#6183E4"/>
  <path d="M15.544 21.12h-1.668a.57.57 0 01-.557-.448l-1.505-6.853h2.739l1.546 6.6a.571.571 0 01-.555.701z" fill="#676E87"/>
  <path d="M16.1 20.42l-1.547-6.6h-1.172l1.547 6.6a.57.57 0 01-.555.7h1.172a.57.57 0 00.555-.7z" fill="#595F74"/>
  <path d="M27.021 4.864A2.168 2.168 0 0129.19 7.03v4.792a2.168 2.168 0 01-2.168 2.167V4.864z" fill="#676E87"/>
  <path d="M27.021 4.864v.344a2.166 2.166 0 01.996 1.824v4.79a2.164 2.164 0 01-.996 1.824v.344a2.168 2.168 0 002.168-2.167V7.03a2.168 2.168 0 00-2.168-2.167z" fill="#595F74"/>
</svg>
