<svg xmlns="http://www.w3.org/2000/svg" fill="none" viewBox="0 0 48 48">
  <path d="M43.789 14.513v19.883H4.21V14.513a2.813 2.813 0 012.813-2.812h33.952a2.814 2.814 0 012.813 2.812z" fill="#D9F0FF"/>
  <path d="M43.789 34.396v2.762a2.813 2.813 0 01-2.813 2.812H7.024a2.813 2.813 0 01-2.813-2.812v-2.762H43.79z" fill="#676E87"/>
  <path d="M29.53 47.297H18.47a.796.796 0 01-.695-1.185l1.308-2.335a4.902 4.902 0 00.418-3.807h8.998a4.914 4.914 0 00.418 3.807l.226.404 1.082 1.93a.796.796 0 01-.695 1.186z" fill="#595F74"/>
  <path d="M37.816 30.328H10.184a.703.703 0 010-1.406h27.632a.703.703 0 110 1.406z" fill="#8EA7EC"/>
  <path d="M22.909 31.417a1.792 1.792 0 100-3.584 1.792 1.792 0 000 3.584z" fill="#676E87"/>
  <path d="M29.143 44.18l-9.446-3.105a4.807 4.807 0 00-.196-1.105H28.5a4.914 4.914 0 00.418 3.807l.226.404z" fill="#4A4F60"/>
  <path d="M33.832 11.7v9.08a.938.938 0 01-.938.937h-1.41a.938.938 0 01-.937-.937V11.7h3.285z" fill="#B3E0FF"/>
  <path d="M30.547 11.7v8.99l-10.473-4.107v-4.882h10.473z" fill="#B3E0FF"/>
  <path d="M20.074 11.7v4.884h-4.288a1.407 1.407 0 01-1.407-1.407v-3.476h5.695z" fill="#B3E0FF"/>
  <path d="M20.06 25.345h-2.003a.685.685 0 01-.668-.538l-1.805-8.224h3.285l1.857 7.92a.684.684 0 01-.667.842zM36.432 11.7v2.486a2.601 2.601 0 01-2.602 2.602V11.7h2.602z" fill="#B3E0FF"/>
  <path d="M31.488.703h-1.41a.937.937 0 00-.938.938v19.138c0 .518.42.938.937.938h1.41c.518 0 .938-.42.938-.938V1.641a.937.937 0 00-.937-.938z" fill="#8EA7EC"/>
  <path d="M31.488.703h-1.406a.937.937 0 01.937.938v19.138a.938.938 0 01-.937.938h1.406a.938.938 0 00.937-.938V1.641a.938.938 0 00-.937-.938z" fill="#6183E4"/>
  <path d="M29.14 20.69l-10.473-4.107V5.837L29.14 1.73v18.96z" fill="#FFE33B"/>
  <path d="M14.38 5.836h4.287v10.747h-4.288a1.406 1.406 0 01-1.406-1.406V7.243a1.407 1.407 0 011.406-1.407z" fill="#8EA7EC"/>
  <path d="M18.667 5.836h-1.406v10.747h1.406V5.836z" fill="#6183E4"/>
  <path d="M18.653 25.344H16.65a.684.684 0 01-.669-.537l-1.805-8.224h3.286l1.856 7.92a.685.685 0 01-.666.841z" fill="#676E87"/>
  <path d="M19.32 24.504l-1.856-7.92h-1.407l1.857 7.92a.684.684 0 01-.667.84h1.407a.685.685 0 00.666-.84z" fill="#595F74"/>
  <path d="M32.425 5.837a2.6 2.6 0 012.602 2.6v5.75a2.6 2.6 0 01-2.602 2.601V5.837z" fill="#676E87"/>
  <path d="M32.425 5.837v.413a2.598 2.598 0 011.195 2.188v5.75a2.599 2.599 0 01-1.195 2.187v.413a2.6 2.6 0 002.602-2.6v-5.75a2.601 2.601 0 00-2.602-2.601z" fill="#595F74"/>
</svg>
